<?xml version="1.0" encoding="UTF-8"?>
<svg width="121px" height="20px" viewBox="0 0 121 20" version="1.1" xmlns="http://www.w3.org/2000/svg" xmlns:xlink="http://www.w3.org/1999/xlink">
    <!-- Generator: Sketch 43.2 (39069) - http://www.bohemiancoding.com/sketch -->
    <title>if_text_invert_182502</title>
    <desc>Created with Sketch.</desc>
    <defs></defs>
    <g id="Page-1" stroke="none" stroke-width="1" fill="none" fill-rule="evenodd">
        <g id="if_text_invert_182502" fill-rule="nonzero" fill="#FFFFFF">
            <path d="M4.36147059,9.83470588 C4.30794118,10.1008824 4.27852941,10.375 4.27852941,10.6535294 C4.27852941,13.2755882 6.735,15.3994118 9.76558824,15.3994118 C12.7958824,15.3994118 15.2526471,13.2752941 15.2526471,10.6535294 C15.2526471,10.375 15.2229412,10.1008824 15.1694118,9.83470588 C14.0302941,8.66705882 12.0367647,7.89088235 9.76558824,7.89088235 C7.49411765,7.89088235 5.50029412,8.66705882 4.36147059,9.83470588 Z M12.3647059,11.0676471 C12.3647059,12.5035294 11.2011765,13.6664706 9.76558824,13.6664706 C8.33029412,13.6664706 7.16647059,12.5035294 7.16647059,11.0676471 C7.16647059,10.7082353 7.23941176,10.3658824 7.37176471,10.0541176 C7.51941176,10.4767647 7.92117647,10.7788235 8.39382353,10.7788235 C8.99235294,10.7788235 9.47676471,10.2947059 9.47676471,9.69588235 C9.47676471,9.22323529 9.17411765,8.82147059 8.75205882,8.67352941 C9.06352941,8.54176471 9.40617647,8.46823529 9.76558824,8.46823529 C11.2008824,8.46852941 12.3647059,9.63264706 12.3647059,11.0676471 Z" id="Shape"></path>
            <path d="M9.76558824,0 C3.50735294,2.28823529 -0.973823529,9.42617647 0.182058824,16.6355882 C0.182058824,16.6355882 3.92205882,20 9.76529412,20 C15.6085294,20 19.3485294,16.6355882 19.3485294,16.6355882 C20.5047059,9.42617647 16.0235294,2.28823529 9.76558824,0 Z M18.0191176,15.8329412 C18.0191176,15.8329412 16.6473529,16.9967647 14.5779412,17.6432353 C14.4991176,17.6682353 14.4070588,17.67 14.3247059,17.6217647 C14.2038235,17.5514706 14.1714706,17.4097059 14.2432353,17.2855882 C14.255,17.2655882 14.2885294,17.2252941 14.3205882,17.1988235 C14.8173529,16.7902941 15.2329412,16.2814706 15.5735294,15.6914706 C16.1832353,14.635 16.4064706,13.4626471 16.2870588,12.3355882 L16.2861765,12.3332353 C15.9320588,14.155 14.8202941,15.8191176 13.0870588,16.8202941 C9.40235294,18.9470588 4.75852941,18.3882353 1.51264706,15.8335294 C1.51264706,15.8335294 1.19029412,14.0632353 1.665,11.9479412 C1.68294118,11.8676471 1.72735294,11.7867647 1.81058824,11.74 C1.93205882,11.67 2.07058824,11.7123529 2.14205882,11.8370588 C2.15411765,11.8570588 2.17205882,11.9064706 2.17882353,11.9473529 C2.28382353,12.5814706 2.51647059,13.1955882 2.85735294,13.7861765 C3.46735294,14.8423529 4.37147059,15.6217647 5.40647059,16.0820588 C4.86558824,15.6117647 4.39176471,15.045 4.01323529,14.3888235 C3.375,13.2835294 3.09117647,12.0717647 3.12529412,10.8832353 C3.205,6.70529412 5.985,3.04911765 9.76529412,1.53764706 C9.76529412,1.53764706 11.4591176,2.14411765 13.0541176,3.61235294 C13.115,3.66852941 13.1620588,3.74764706 13.1617647,3.84294118 C13.1608824,3.98294118 13.0552941,4.08176471 12.9114706,4.08176471 C12.8879412,4.08176471 12.8364706,4.07264706 12.7973529,4.05852941 C12.1952941,3.83205882 11.5473529,3.72617647 10.8655882,3.72617647 C9.64588235,3.72617647 8.51852941,4.11970588 7.60294118,4.78647059 L7.60176471,4.78764706 C9.51882353,4.12441176 11.6061765,4.39058824 13.2767647,5.42823529 C16.8341176,7.59176471 18.5988235,11.8152941 18.0191176,15.8329412 Z" id="Shape"></path>
            <polygon id="Shape" points="26.3520588 15.9844118 23.5985294 15.9844118 23.5985294 4.65264706 26.3520588 4.65264706"></polygon>
            <path d="M37.5241176,5.07823529 L37.3288235,7.47617647 C36.5820588,7.00294118 35.6823529,6.76588235 34.6285294,6.76588235 C33.5747059,6.76588235 32.6923529,7.09470588 31.9817647,7.75176471 C31.2711765,8.40852941 30.9164706,9.26441176 30.9164706,10.3182353 C30.9164706,11.3726471 31.2770588,12.2247059 32,12.8758824 C32.7220588,13.5273529 33.6273529,13.8529412 34.7173529,13.8529412 C35.8897059,13.8529412 36.8191176,13.6282353 37.5055882,13.1779412 L37.2747059,15.6470588 C36.5876471,16.0497059 35.5988235,16.2514706 34.3088235,16.2514706 C33.5508824,16.2514706 32.8076471,16.1205882 32.0791176,15.8602941 C31.3514706,15.6 30.6908824,15.23 30.0988235,14.7502941 C29.5070588,14.2702941 29.03,13.6458824 28.6694118,12.8761765 C28.3079412,12.1064706 28.1273529,11.2544118 28.1273529,10.3185294 C28.1273529,9.07529412 28.4408824,7.99205882 29.0691176,7.06823529 C29.6964706,6.14470588 30.4688235,5.46676471 31.3867647,5.03441176 C32.3038235,4.60235294 33.2782353,4.38617647 34.3088235,4.38617647 C35.6585294,4.38588235 36.7302941,4.61647059 37.5241176,5.07823529 Z" id="Shape"></path>
            <path d="M50.8623529,10.3005882 C50.8623529,12.0647059 50.2555882,13.4970588 49.0420588,14.5985294 C47.8279412,15.7 46.3982353,16.2508824 44.7526471,16.2508824 C43.1185294,16.2508824 41.6941176,15.7 40.4805882,14.5985294 C39.2670588,13.4970588 38.6602941,12.0647059 38.6602941,10.3005882 C38.6602941,8.55970588 39.2670588,7.13882353 40.4805882,6.03735294 C41.6941176,4.93647059 43.1185294,4.38588235 44.7526471,4.38588235 C45.8064706,4.38588235 46.795,4.62294118 47.7185294,5.09647059 C48.6423529,5.56970588 49.3967647,6.26588235 49.9829412,7.18382353 C50.5691176,8.10058824 50.8623529,9.14 50.8623529,10.3005882 Z M48.0735294,10.3005882 C48.0735294,9.28235294 47.7426471,8.44382353 47.0791176,7.78705882 C46.4155882,7.13029412 45.6408824,6.80117647 44.7526471,6.80117647 C43.8644118,6.80117647 43.0917647,7.13 42.435,7.78705882 C41.7770588,8.44382353 41.4488235,9.28235294 41.4488235,10.3005882 C41.4488235,11.3302941 41.7770588,12.1741176 42.435,12.8314706 C43.0917647,13.4882353 43.8644118,13.8173529 44.7526471,13.8173529 C45.6408824,13.8173529 46.4155882,13.4885294 47.0791176,12.8314706 C47.7426471,12.1744118 48.0735294,11.3305882 48.0735294,10.3005882 Z" id="Shape"></path>
            <path d="M63.1005882,16.1088235 L61.715,16.1088235 L57.31,11.2773529 C56.6944118,10.6023529 55.9897059,9.77411765 55.1958824,8.79088235 L55.1605882,8.80852941 C55.1958824,9.61441176 55.2141176,10.4073529 55.2141176,11.1885294 L55.2141176,15.9847059 L52.4614706,15.9847059 L52.4614706,4.65264706 L54.6817647,4.65264706 L58.5179412,8.88 C59.24,9.67264706 59.8555882,10.3955882 60.365,11.0467647 L60.4005882,11.0285294 C60.365,10.3538235 60.3470588,9.64970588 60.3470588,8.91529412 L60.3470588,4.65264706 L63.1002941,4.65264706 L63.1002941,16.1088235 L63.1005882,16.1088235 Z" id="Shape"></path>
            <polygon id="Shape" points="71.8208824 6.90823529 67.8070588 6.90823529 67.8070588 9.16382353 71.1105882 9.16382353 71.1105882 11.455 67.8070588 11.455 67.8070588 15.9841176 65.0544118 15.9841176 65.0544118 4.65264706 71.8211765 4.65264706 71.8211765 6.90823529"></polygon>
            <polygon id="Shape" points="75.9944118 15.9844118 73.2408824 15.9844118 73.2408824 4.65264706 75.9944118 4.65264706"></polygon>
            <path d="M88.765,16.1088235 L87.3797059,16.1088235 L82.9744118,11.2773529 C82.3585294,10.6023529 81.6544118,9.77411765 80.8602941,8.79088235 L80.8252941,8.80852941 C80.8602941,9.61441176 80.8788235,10.4073529 80.8788235,11.1885294 L80.8788235,15.9847059 L78.1258824,15.9847059 L78.1258824,4.65264706 L80.3461765,4.65264706 L84.1823529,8.88 C84.9044118,9.67264706 85.5202941,10.3955882 86.0297059,11.0467647 L86.065,11.0285294 C86.0297059,10.3538235 86.0111765,9.64970588 86.0111765,8.91529412 L86.0111765,4.65264706 L88.7647059,4.65264706 L88.7647059,16.1088235 L88.765,16.1088235 Z" id="Shape"></path>
            <path d="M98.8444118,6.19794118 C100.022647,7.22764706 100.612353,8.60176471 100.612353,10.3182353 C100.612353,12.0352941 100.022647,13.4085294 98.8444118,14.4388235 C97.6661765,15.4688235 96.2302941,15.9844118 94.5376471,15.9844118 L90.7188235,15.9844118 L90.7188235,4.65264706 L94.5376471,4.65264706 C96.2302941,4.65264706 97.6661765,5.16735294 98.8444118,6.19794118 Z M96.82,12.7602941 C97.5123529,12.1864706 97.8585294,11.3726471 97.8585294,10.3182353 C97.8585294,9.26441176 97.5120588,8.45058824 96.82,7.87617647 C96.1270588,7.30235294 95.2597059,7.01470588 94.2173529,7.01470588 L93.3652941,7.01470588 L93.3652941,13.6217647 L94.2173529,13.6217647 C95.2597059,13.6214706 96.1270588,13.3347059 96.82,12.7602941 Z" id="Shape"></path>
            <polygon id="Shape" points="109.314706 15.9844118 102.21 15.9844118 102.21 4.65264706 108.817353 4.65264706 108.817353 6.90823529 104.962941 6.90823529 104.962941 9.16382353 108.106765 9.16382353 108.106765 11.455 104.962941 11.455 104.962941 13.7285294 109.315 13.7285294 109.315 15.9844118"></polygon>
            <path d="M120.397647,15.9844118 L117.324412,15.9844118 L114.269706,11.5258824 L113.293235,11.5258824 L113.293235,15.9844118 L110.646765,15.9844118 L110.646765,4.65264706 L114.873529,4.65264706 C115.879706,4.65264706 116.741471,4.96617647 117.458235,5.59352941 C118.174706,6.22176471 118.532059,7.05 118.532059,8.08058824 C118.532059,8.71941176 118.366471,9.29411765 118.035,9.80352941 C117.703529,10.3123529 117.289412,10.6852941 116.791765,10.9223529 L120.397647,15.9844118 Z M115.886176,8.08058824 C115.886176,7.67794118 115.746471,7.36735294 115.468235,7.14764706 C115.190294,6.92852941 114.855588,6.81970588 114.465294,6.81970588 L113.293235,6.81970588 L113.293235,9.35941176 L114.465294,9.35941176 C114.855588,9.35941176 115.190294,9.25029412 115.468235,9.03058824 C115.746765,8.81176471 115.886176,8.49470588 115.886176,8.08058824 Z" id="Shape"></path>
        </g>
    </g>
</svg>