<svg xmlns="http://www.w3.org/2000/svg" viewBox="0 0 1334.82 385.01"><defs><style>.cls-1{fill:none;}.cls-2{fill:#00acd8;}.cls-3{fill:#682145;}.cls-4{fill:#f18a00;}</style></defs><title>Asset 1</title><g id="Layer_2" data-name="Layer 2"><g id="Layer_1-2" data-name="Layer 1"><path class="cls-1" d="M320.41,274.86q1.09-2.08,2.15-4.16c.73-1.43,1.41-2.82,2.11-4.22-.7,1.4-1.38,2.79-2.11,4.22S321.14,273.47,320.41,274.86Z"/><path class="cls-1" d="M248,377.74l-.39.33Z"/><path class="cls-1" d="M250.42,375.56l-.49.45Z"/><path class="cls-1" d="M307.62,298c-.53.91-1.07,1.81-1.61,2.72C306.55,299.76,307.09,298.86,307.62,298Z"/><path class="cls-1" d="M298.71,312.68l-1.27,2Z"/><path class="cls-1" d="M301.47,308.22l-1.42,2.32Z"/><path class="cls-1" d="M319.74,276.12c-.51,1-1,2-1.55,2.94C318.72,278.08,319.23,277.1,319.74,276.12Z"/><path class="cls-1" d="M296,316.94c-.4.63-.8,1.26-1.21,1.89C295.22,318.2,295.62,317.57,296,316.94Z"/><path class="cls-1" d="M293.32,321.14l-1.13,1.73Z"/><path class="cls-1" d="M305.09,302.23c-.81,1.37-1.64,2.74-2.47,4.11C303.45,305,304.28,303.6,305.09,302.23Z"/><path class="cls-1" d="M317.34,280.64c-.47.88-.95,1.75-1.43,2.63C316.39,282.39,316.87,281.52,317.34,280.64Z"/><path class="cls-1" d="M315,285c-.46.85-.93,1.69-1.4,2.53C314,286.7,314.5,285.86,315,285Z"/><path class="cls-1" d="M312.56,289.33l-1.42,2.51Z"/><path class="cls-1" d="M310.11,293.64l-1.46,2.53Z"/><path class="cls-1" d="M275.38,346.87l-.69.92Z"/><path class="cls-1" d="M272.72,350.36l-.68.87Z"/><path class="cls-1" d="M267.37,357.1c-.11.14-.23.29-.36.43C267.14,357.39,267.26,357.24,267.37,357.1Z"/><path class="cls-1" d="M270.05,353.77l-.6.76Z"/><path class="cls-1" d="M252.82,373.25l-.48.48Z"/><path class="cls-1" d="M255.18,370.88l-.35.37Z"/><path class="cls-1" d="M287.89,329.32l-.83,1.21Z"/><path class="cls-1" d="M278,343.42c-.2.26-.39.53-.58.79C277.56,344,277.75,343.68,278,343.42Z"/><path class="cls-1" d="M290.61,325.26l-1,1.56Z"/><path class="cls-2" d="M409.2,37C365.1-.7,295.16-3.36,257.5,2.23c45.69,7.9,89.95,30.62,103.6,86.22,7.95,32.38,7.91,89.42-36.43,178-.7,1.4-1.38,2.79-2.11,4.22s-1.42,2.77-2.15,4.16c-.22.42-.44.84-.67,1.26-.51,1-1,2-1.55,2.94l-.85,1.58c-.47.88-.95,1.75-1.43,2.63-.31.58-.63,1.16-1,1.74-.46.85-.93,1.69-1.4,2.53l-1,1.79-1.42,2.51c-.34.6-.68,1.2-1,1.8l-1.46,2.53-1,1.78c-.53.91-1.07,1.81-1.61,2.72-.3.52-.61,1-.92,1.56-.81,1.37-1.64,2.74-2.47,4.11l-1.15,1.88-1.42,2.32-1.34,2.14-1.27,2c-.47.74-.94,1.49-1.42,2.23s-.8,1.26-1.21,1.89-1,1.54-1.49,2.31l-1.13,1.73c-.53.8-1.05,1.6-1.58,2.39l-1,1.56-1.68,2.5-.83,1.21c-3,4.44-6.07,8.75-9.11,12.89-.2.26-.39.53-.58.79l-2,2.66-.69.92c-.66.86-1.31,1.72-2,2.57l-.68.87c-.66.86-1.32,1.7-2,2.54l-.6.76-2.08,2.57c-.11.14-.23.29-.36.43-4,4.92-8,9.4-11.83,13.35l-.35.37c-.68.69-1.34,1.35-2,2l-.48.48q-1,.94-1.92,1.83l-.49.45c-.64.6-1.28,1.17-1.91,1.73l-.39.33c-.66.58-1.32,1.15-2,1.69h0c1.37-.46,2.68-.91,3.83-1.4,138.28-58.15,207.3-156.39,207.3-236C456.77,111.86,448.74,70.82,409.2,37Z"/><path class="cls-3" d="M306,300.67c-.3.52-.61,1-.92,1.56C305.4,301.71,305.71,301.19,306,300.67Z"/><path class="cls-4" d="M89.39,150.6c12.27-56.55,69.49-78.18,100.23-89.81,4.56-1.72,8.49-3.2,11.43-4.48,7.92-3.44,10.61-6.47,10.92-7.26a3.8,3.8,0,0,0,.52-2.4,6.67,6.67,0,0,0-2.88-5.06,32.66,32.66,0,0,0-3-1.71c-8.06-3.21-21.49-6-43.67-6.7-3.49-.11-99,0-142,61.55C-6.16,133.54.77,172.42.84,173.11,12.34,288.2,151.08,355.93,205.93,378.36c1.82.74,4,1.49,6.21,2.18C116.89,284.18,76.73,209,89.39,150.6Z"/><path class="cls-3" d="M212.11,18.47A43.41,43.41,0,0,1,226.52,33.9c5.9,11,11,27.93-18.32,40.65C165.29,93.16-8.49,130.93,227.32,368.38,270.77,345.67,478,18.47,212.11,18.47Z"/><path class="cls-3" d="M537.8,322.59h21.47v4.15H542.45v16.61h14.67v3.79H542.45v18.54H560v4.15H537.8Z"/><path class="cls-3" d="M566.29,369.83V332.61h2.86l1.36,4.44c2.79-2.44,6.94-5.3,12.67-5.3,6.51,0,10.31,4.22,10.31,11.31v26.77h-4.66v-26c0-5.73-2.72-8-6.94-8-4,0-7.8,1.93-10.95,4.58v29.35Z"/><path class="cls-3" d="M629.35,319.73v41.51c0,3.72,1.08,5,3.58,5.44l1.15.22.28.5-.71,2.79a5.25,5.25,0,0,1-2.29.5c-3.8,0-6-2.72-6.37-6.51h-.36a13.16,13.16,0,0,1-11.17,6.51c-6.73,0-12-4.8-12-17.47v-3.5c0-12.89,5.72-18,13.74-18a15.37,15.37,0,0,1,9.52,3.51V319.73Zm-23.26,33.21c0,8.73,2.43,13.6,7.87,13.6,4.73,0,8.3-3.79,10.74-7.23v-20a14.51,14.51,0,0,0-8.88-3.37c-5.51,0-9.73,3.22-9.73,14.39Z"/><path class="cls-3" d="M643.1,320.73a3.15,3.15,0,1,1-3.15,3.15A3,3,0,0,1,643.1,320.73Zm-2.29,11.88h4.65v37.22h-4.65Z"/><path class="cls-3" d="M655.34,369.83V332.61h2.86l1.36,4.44c2.79-2.44,7-5.3,12.67-5.3,6.51,0,10.31,4.22,10.31,11.31v26.77h-4.65v-26c0-5.73-2.72-8-6.95-8-4,0-7.8,1.93-11,4.58v29.35Z"/><path class="cls-3" d="M703.66,331.75a12.55,12.55,0,0,1,9.52,3.87,9,9,0,0,1,6.87-3h1.07v3.72l-.57.5c-.07,0-.5-.07-.93-.07a6.83,6.83,0,0,0-4.58,1.58,12.85,12.85,0,0,1,1.43,6c0,8.73-5.73,12.45-12.81,12.45h-.86a14.77,14.77,0,0,1-5.15-.86,8.93,8.93,0,0,0-2.15,4.94c0,2.22,1.5,3.73,4.29,3.73H708c7.73,0,11.46,4.29,11.46,9.3v.57c0,5.23-3.87,10.53-14.46,10.53h-2.15c-9.09,0-13.46-4.16-13.46-9.31v-.21c0-3.3,1.94-5.87,4.94-7.81v-.14A6.36,6.36,0,0,1,691.2,362c0-2.44,1.36-5.16,3.3-7.52-2.8-1.93-4.51-5.3-4.51-10.09,0-7.09,4.86-12.6,12.81-12.6Zm-4,37a13,13,0,0,1-1.43-.07c-2.51,1.57-4.15,3.65-4.15,6.29,0,3.8,3.07,6.16,9.16,6.16h1.43c7.37,0,10.16-2.5,10.16-6.51v-.29c0-3.08-1.93-5.58-7.3-5.58Zm-5-24.63v.51c0,4.93,2.65,8.3,8.59,8.3,6.23,0,8.59-3.44,8.59-8.3v-.51c0-4.72-2.72-8.51-8.59-8.51S694.64,339.41,694.64,344.13Z"/><path class="cls-3" d="M742.53,365.61l.79-.36a38.78,38.78,0,0,0,9.16,1.29c7.66,0,10.66-3.79,10.66-10,0-4.22-2.29-6.8-7.37-8.38l-5-1.57c-6-1.86-9.59-5.37-9.59-11.88,0-7.52,4.29-13,14.6-13a40.48,40.48,0,0,1,8.52,1c-.07,1.43-.29,3.58-.29,3.58l-.64.43a35.5,35.5,0,0,0-7.52-.86c-7.66,0-10,3.72-10,8.59,0,4.22,1.93,6.8,6.66,8.23l4.87,1.51c7,2.14,10.45,6.22,10.45,12.38,0,7.87-3.87,14.1-15.32,14.1a36.33,36.33,0,0,1-9.81-1.29C742.53,367.68,742.53,365.61,742.53,365.61Z"/><path class="cls-3" d="M788.7,331.75c8.88,0,14,6.59,14,18v3c0,11.38-5.15,18-14,18h-.57c-8.88,0-14-6.59-14-18v-3c0-11.38,5.15-18,14-18Zm9.38,17.11c0-7.66-2.87-13-9.67-13s-9.66,5.3-9.66,13v4.79c0,7.73,2.86,12.89,9.66,12.89s9.67-5.16,9.67-12.89Z"/><path class="cls-3" d="M832.29,369a21,21,0,0,1-8.16,1.65c-9.59,0-14.81-4.94-14.81-18.4v-1.07c0-14.32,5.37-19.47,15.24-19.47a22.36,22.36,0,0,1,7,1.08c-.14,1.35-.5,3.5-.5,3.5l-.5.36a28.05,28.05,0,0,0-6-.79c-6.37,0-10.59,2.65-10.59,15.39v1c0,12.39,5.23,14.25,10.45,14.25a23.62,23.62,0,0,0,6.8-1.29l.57.36C831.87,366,832.15,367.68,832.29,369Z"/><path class="cls-3" d="M841.24,320.73a3.15,3.15,0,1,1-3.15,3.15A3,3,0,0,1,841.24,320.73ZM839,332.61h4.66v37.22H839Z"/><path class="cls-3" d="M874,346.07c0-6.73-2.08-10.17-10.17-10.17a32.92,32.92,0,0,0-9.3,1.43l-.57-.5c0-.35.5-3.08.64-3.65a32.51,32.51,0,0,1,9.59-1.43c10.74,0,14.46,4.87,14.46,14.32v15.17c0,3.87,1.22,5,3.58,5.44l1.15.22.28.5c-.14.5-.71,2.79-.71,2.79a5.25,5.25,0,0,1-2.29.5c-3.73,0-6.09-2.58-6.45-6.8H874c-2.29,3.72-5.87,6.8-11.6,6.8a10.77,10.77,0,0,1-11.09-11v-.36c0-6.59,3.58-10.6,11.45-11.52L874,346.42Zm0,13.24v-8.95l-10,1.22c-6,.71-8,3.43-8,7.37v.36c0,4.36,2.86,7.23,7.16,7.23C868.16,366.54,871.67,362.75,874,359.31Z"/><path class="cls-3" d="M894.79,319.73v41.51c0,4.22,1.36,5.3,3.94,5.3a10.77,10.77,0,0,0,2.22-.22l.57.58v3.22a12.49,12.49,0,0,1-3.87.57c-5.37,0-7.51-3.29-7.51-9.23V319.73Z"/><path class="cls-3" d="M924,322.59h4.65v47.24H924Z"/><path class="cls-3" d="M937.88,366.11l.72-.5a44.15,44.15,0,0,0,8.73.93c6.23,0,9.52-2.36,9.52-7.09,0-3.22-1.72-5.22-7-6.44l-4.15-.93c-5.8-1.29-9.09-3.51-9.09-9.59,0-5.66,3.5-10.74,13.74-10.74a45.92,45.92,0,0,1,8,.93c-.15,1.43-.29,3.37-.36,3.65l-.72.36a44.35,44.35,0,0,0-6.94-.79c-7,0-9.09,2.72-9.09,6.59,0,3.08,2.22,4.79,6,5.65l4.22.93c7.23,1.58,10,5.09,10,10.38,0,7.23-4.66,11.24-14,11.24a43.14,43.14,0,0,1-9.31-.93C938,368.4,937.88,366.11,937.88,366.11Z"/><path class="cls-3" d="M982.19,331.75c8.88,0,14,6.59,14,18v3c0,11.38-5.15,18-14,18h-.57c-8.87,0-14-6.59-14-18v-3c0-11.38,5.16-18,14-18Zm9.38,17.11c0-7.66-2.86-13-9.66-13s-9.67,5.3-9.67,13v4.79c0,7.73,2.87,12.89,9.67,12.89s9.66-5.16,9.66-12.89Z"/><path class="cls-3" d="M1009.11,319.73v41.51c0,4.22,1.36,5.3,3.94,5.3a10.65,10.65,0,0,0,2.22-.22l.57.58v3.22a12.49,12.49,0,0,1-3.87.57c-5.36,0-7.51-3.29-7.51-9.23V319.73Z"/><path class="cls-3" d="M1042.9,346.07c0-6.73-2.08-10.17-10.17-10.17a32.92,32.92,0,0,0-9.3,1.43l-.57-.5c0-.35.5-3.08.64-3.65a32.51,32.51,0,0,1,9.59-1.43c10.74,0,14.46,4.87,14.46,14.32v15.17c0,3.87,1.22,5,3.58,5.44l1.14.22.29.5c-.14.5-.72,2.79-.72,2.79a5.25,5.25,0,0,1-2.29.5c-3.72,0-6.08-2.58-6.44-6.8h-.21c-2.29,3.72-5.87,6.8-11.6,6.8a10.77,10.77,0,0,1-11.09-11v-.36c0-6.59,3.58-10.6,11.45-11.52l11.24-1.37Zm0,13.24v-8.95l-10,1.22c-6,.71-8,3.43-8,7.37v.36c0,4.36,2.86,7.23,7.16,7.23C1037,366.54,1040.54,362.75,1042.9,359.31Z"/><path class="cls-3" d="M1055.57,332.61h5.37L1062,324h3.58v8.59h9.52v4.15h-9.52v23.41c0,5,2.15,6.37,5.23,6.37a17,17,0,0,0,3.65-.43l.64.36V370a16.78,16.78,0,0,1-4.79.72c-6.37,0-9.38-3.22-9.38-10.38V336.76h-5.37Z"/><path class="cls-3" d="M1084.06,320.73a3.15,3.15,0,1,1-3.15,3.15A3,3,0,0,1,1084.06,320.73Zm-2.29,11.88h4.65v37.22h-4.65Z"/><path class="cls-3" d="M1109.26,331.75c8.87,0,14,6.59,14,18v3c0,11.38-5.16,18-14,18h-.58c-8.87,0-14-6.59-14-18v-3c0-11.38,5.15-18,14-18Zm9.37,17.11c0-7.66-2.86-13-9.66-13s-9.66,5.3-9.66,13v4.79c0,7.73,2.86,12.89,9.66,12.89s9.66-5.16,9.66-12.89Z"/><path class="cls-3" d="M1131.52,369.83V332.61h2.86l1.36,4.44c2.8-2.44,7-5.3,12.67-5.3,6.52,0,10.31,4.22,10.31,11.31v26.77h-4.65v-26c0-5.73-2.72-8-6.94-8-4,0-7.81,1.93-11,4.58v29.35Z"/><path class="cls-3" d="M537.56,42h34.67C593,42,603.15,51.7,603.15,69.5v1.25c0,10-2.49,17.5-12.18,20.93v.63c12.18,3.43,15.31,13.11,15.31,24v1.25c0,13.58-6.41,27.48-26.24,27.48H537.56Zm26.55,20.3V84.18h6.25c4.21,0,6.24-2.81,6.24-8.58V72.16c0-6.25-2.18-9.84-7.8-9.84Zm0,40.61v21.86h9.37c4.22,0,6.25-2.81,6.25-8.59v-4.68c0-5.78-3.28-8.59-9.37-8.59Z"/><path class="cls-3" d="M640.63,111.52v3.9c0,6.4,2.5,9.68,14.22,9.68,6.4,0,16.55-3,16.55-3l2.19,1.1s1.4,9.68,2,18.11c0,.16-11.09,5.63-26.86,5.63-23.27,0-34.68-12.5-34.68-40.14v-5.62c0-24.83,13.12-39.2,32.49-39.2h2.65c18.9,0,28.9,11.24,28.9,32.95v2.66a108.16,108.16,0,0,1-1.41,13.9Zm0-14.06h12.5V86.06c0-5-2.19-6.87-5.31-6.87-2.81,0-7.19,2-7.19,10Z"/><path class="cls-3" d="M730,157.12c-4.38,14.83-9.84,21.08-22.49,21.08a53.5,53.5,0,0,1-18.43-3.43l2.34-17,2.66-2.5a26.64,26.64,0,0,0,5.31,1.1c3.43,0,5.46-2.19,6.87-7l1.25-4.22-27.8-81.21h25.61l10.78,32.17,2.34,15.15h1.25l2.5-15.15,9.68-32.17h26.08Z"/><path class="cls-3" d="M794.31,62c19.37,0,32.33,14.37,32.33,39.2v6.56c0,24.83-13,39.2-32.33,39.2h-2.5c-19.36,0-32.32-14.37-32.32-39.2v-6.56c0-24.83,13-39.2,32.32-39.2Zm5.78,29.83c0-7.34-3.28-9.53-7-9.53s-7,2.19-7,9.53V117c0,7.34,3.28,9.68,7,9.68s7-2.34,7-9.68Z"/><path class="cls-3" d="M835.23,145.09V63.88h15.61l7.66,9.22C863.65,67.79,871,62,882.39,62c13.28,0,21.55,9.21,21.55,22.8v60.28H877.39V89.34c0-3.44-2-5.47-6.24-5.47-3.75,0-7.5,1.72-9.37,2.66v58.56Z"/><path class="cls-3" d="M982.81,119c0,3.28.94,5,4.37,5.62l3.28.47,1.1,2.5c-.78,4.37-3.13,13.9-3.13,13.9S983.9,147,974.53,147c-7.49,0-12.65-3.44-15.46-8.12h-1.25a23.85,23.85,0,0,1-18,8.12c-16.08,0-27.33-11.72-27.33-39.36v-4.68c0-30.3,11.25-40.92,30.61-40.92a43.51,43.51,0,0,1,13.12,2.34V35.77h26.55ZM939.08,105c0,17.33,4.53,21.7,10.62,21.7a25.4,25.4,0,0,0,6.56-.93V84.5a42.46,42.46,0,0,0-7-.63c-7,0-10.15,4.53-10.15,19.37Z"/><path class="cls-3" d="M1029.82,63.88h9l7.81-18.74h18.74V63.88h17.34V85.75h-17.34v29.67c0,6.4,1.41,9.68,7.5,9.68a33,33,0,0,0,8-.78l1.87.94v18.9S1077,147,1067.61,147c-23.74,0-28.74-11.09-28.74-31.24v-30h-9Z"/><path class="cls-3" d="M1090.57,145.09V35.77h26.55v34h.31a29.75,29.75,0,0,1,20.3-7.81c13.28,0,21.55,9.21,21.55,22.8v60.28h-26.55V89.34c0-3.44-2-5.47-6.24-5.47-3.75,0-7.5,1.72-9.37,2.66v58.56Z"/><path class="cls-3" d="M1194.42,111.52v3.9c0,6.4,2.5,9.68,14.21,9.68,6.41,0,16.56-3,16.56-3l2.18,1.1s1.41,9.68,2,18.11c0,.16-11.08,5.63-26.86,5.63-23.27,0-34.67-12.5-34.67-40.14v-5.62c0-24.83,13.12-39.2,32.49-39.2H1203c18.9,0,28.89,11.24,28.89,32.95v2.66a108.91,108.91,0,0,1-1.4,13.9Zm0-14.06h12.5V86.06c0-5-2.19-6.87-5.31-6.87-2.82,0-7.19,2-7.19,10Z"/><path class="cls-3" d="M574.42,281.84c-22.8,0-38.73-10.77-38.73-48.72v-5.47c0-38,16.08-52.63,42.16-52.63a54.22,54.22,0,0,1,14.84,2c-.62,8.59-2.19,19.84-2.19,19.84l-1.87.93a50.57,50.57,0,0,0-8.75-.93c-11.24,0-16.86,8.74-16.86,31.07v3.28c0,21.4,5.46,28.74,16.71,28.74A48.06,48.06,0,0,0,590,258.26l1.87.94s1.87,10.77,2.5,19.36A70.73,70.73,0,0,1,574.42,281.84Z"/><path class="cls-3" d="M633.76,196.89c19.37,0,32.33,14.36,32.33,39.19v6.56c0,24.84-13,39.2-32.33,39.2h-2.49c-19.37,0-32.33-14.36-32.33-39.2v-6.56c0-24.83,13-39.19,32.33-39.19Zm5.78,29.82c0-7.34-3.28-9.52-7-9.52s-7,2.18-7,9.52v25.15c0,7.34,3.28,9.68,7,9.68s7-2.34,7-9.68Z"/><path class="cls-3" d="M674.68,280V198.76H690.3L698,208c5.15-5.31,12.49-11.08,23.89-11.08,13.28,0,21.56,9.21,21.56,22.8V280H716.85V224.22c0-3.44-2-5.47-6.25-5.47-3.75,0-7.5,1.72-9.37,2.65V280Z"/><path class="cls-3" d="M769,280l-20.15-81.21h25.62l7.8,36.86,2.82,17.8h2.18l2.81-17.8,7.81-36.86h25.77L803.37,280Z"/><path class="cls-3" d="M851.78,246.39v3.91c0,6.4,2.5,9.68,14.21,9.68,6.41,0,16.56-3,16.56-3l2.18,1.1s1.41,9.68,2,18.11c0,.16-11.08,5.62-26.86,5.62-23.27,0-34.67-12.49-34.67-40.13v-5.63c0-24.83,13.12-39.19,32.49-39.19h2.65c18.9,0,28.89,11.24,28.89,33v2.65a108.67,108.67,0,0,1-1.4,13.9Zm0-14h12.5v-11.4c0-5-2.19-6.88-5.31-6.88-2.81,0-7.19,2-7.19,10Z"/><path class="cls-3" d="M897.85,280V198.76h15.62l7.18,8.9c3.44-5.31,8.44-10.77,19.21-10.77a27.22,27.22,0,0,1,3.91.31l-1.88,23.74-3.12,1.56a28,28,0,0,0-5.78-.63,15.16,15.16,0,0,0-8.59,2.5V280Z"/><path class="cls-3" d="M950,259.2l2.34-1.25a146.85,146.85,0,0,0,20.46,2C983,260,985,258.26,985,254.67c0-2-1.25-3.59-4.84-4.22l-13.28-2.34c-10.46-1.87-18.74-8.28-19-20.46-.63-20.15,8.59-30.76,35.61-30.76a107.45,107.45,0,0,1,19.21,1.87,154.46,154.46,0,0,1-1.88,20.3l-2.34,1.25a105.91,105.91,0,0,0-14.84-1.56c-9.37,0-10.77,2.34-10.77,5.15,0,2,1.4,3.28,3.9,3.75l10.78,1.88c16.08,2.81,22.49,10.3,22.49,23.58,0,18.74-8.28,28.73-34.83,28.73a126.86,126.86,0,0,1-23-2A187.25,187.25,0,0,1,950,259.2Z"/><path class="cls-3" d="M1043.56,196.89c28,0,38.27,10.15,38.27,31.23v25.77c0,3.28.93,5,4.37,5.62l3.28.47,1.09,2.5c-.78,4.37-3.12,13.9-3.12,13.9s-4.53,5.46-13.9,5.46c-8,0-13.28-3.9-16.09-9.21h-.93a23.91,23.91,0,0,1-18.9,9.21c-13.28,0-21.4-10.15-21.4-22.8V255c0-14.83,7.34-21.86,20.31-23.42l18.74-2.35v-.78c0-6.4-3-9.68-16.09-9.68a118.07,118.07,0,0,0-15.3,1.25l-2.35-1.56a164.3,164.3,0,0,1,3.75-20.31C1025.29,198.29,1033.72,196.89,1043.56,196.89Zm11.72,62V242l-6.41,2.5c-3.28,1.25-6.09,3.43-6.09,7.65V255c0,3.91,2.34,6.56,6.25,6.56A9.63,9.63,0,0,0,1055.28,258.89Z"/><path class="cls-3" d="M1094.48,198.76h9l7.81-18.74h18.74v18.74h17.34v21.86h-17.34V250.3c0,6.4,1.41,9.68,7.5,9.68a32.8,32.8,0,0,0,8-.78l1.88.94V279s-5.78,2.81-15.15,2.81c-23.74,0-28.74-11.08-28.74-31.23v-30h-9Z"/><path class="cls-3" d="M1168.5,166.28c8.75,0,15.15,4.21,15.15,13s-6.4,13-15.15,13-15.15-4.22-15.15-13S1159.75,166.28,1168.5,166.28ZM1155.23,280V198.76h26.55V280Z"/><path class="cls-3" d="M1225.19,196.89c19.37,0,32.33,14.36,32.33,39.19v6.56c0,24.84-13,39.2-32.33,39.2h-2.5c-19.36,0-32.33-14.36-32.33-39.2v-6.56c0-24.83,13-39.19,32.33-39.19Zm5.78,29.82c0-7.34-3.28-9.52-7-9.52s-7,2.18-7,9.52v25.15c0,7.34,3.28,9.68,7,9.68s7-2.34,7-9.68Z"/><path class="cls-3" d="M1266.11,280V198.76h15.61l7.66,9.21c5.15-5.31,12.49-11.08,23.89-11.08,13.28,0,21.55,9.21,21.55,22.8V280h-26.55V224.22c0-3.44-2-5.47-6.24-5.47-3.75,0-7.5,1.72-9.37,2.65V280Z"/></g></g></svg>