<svg xmlns="http://www.w3.org/2000/svg" width="108.347" height="31.251" viewBox="0 0 108.347 31.251"><defs><style>.a{fill:#fff;}</style></defs><path class="a" d="M320.41,267.16q.088-.169.175-.338c.059-.116.114-.229.171-.343-.057.114-.112.226-.171.343S320.469,267.047,320.41,267.16Z" transform="translate(-294.402 -244.85)"/><path class="a" d="M247.642,377.74l-.032.027Z" transform="translate(-227.511 -347.079)"/><path class="a" d="M249.97,375.56l-.04.037Z" transform="translate(-229.643 -345.076)"/><path class="a" d="M306.141,298c-.043.074-.087.147-.131.221C306.054,298.143,306.1,298.07,306.141,298Z" transform="translate(-281.171 -273.811)"/><path class="a" d="M297.543,312.68l-.1.162Z" transform="translate(-273.297 -287.3)"/><path class="a" d="M300.165,308.22l-.115.188Z" transform="translate(-275.695 -283.202)"/><path class="a" d="M318.316,276.12c-.041.081-.081.162-.126.239C318.233,276.279,318.274,276.2,318.316,276.12Z" transform="translate(-292.362 -253.707)"/><path class="a" d="M294.888,316.94l-.1.153C294.825,317.042,294.857,316.991,294.888,316.94Z" transform="translate(-270.862 -291.214)"/><path class="a" d="M292.282,321.14l-.092.14Z" transform="translate(-268.473 -295.073)"/><path class="a" d="M302.82,302.23c-.066.111-.133.222-.2.334C302.687,302.455,302.755,302.341,302.82,302.23Z" transform="translate(-278.056 -277.698)"/><path class="a" d="M316.026,280.64c-.038.071-.077.142-.116.213C315.949,280.782,315.988,280.711,316.026,280.64Z" transform="translate(-290.267 -257.861)"/><path class="a" d="M313.714,285c-.037.069-.075.137-.114.205C313.632,285.138,313.673,285.07,313.714,285Z" transform="translate(-288.145 -261.867)"/><path class="a" d="M311.255,289.33l-.115.2Z" transform="translate(-285.885 -265.845)"/><path class="a" d="M308.769,293.64l-.119.205Z" transform="translate(-283.597 -269.805)"/><path class="a" d="M274.746,346.87l-.056.075Z" transform="translate(-252.393 -318.715)"/><path class="a" d="M272.1,350.36l-.055.071Z" transform="translate(-249.958 -321.921)"/><path class="a" d="M267.039,357.1c-.009.011-.019.024-.029.035C267.021,357.124,267.03,357.111,267.039,357.1Z" transform="translate(-245.337 -328.114)"/><path class="a" d="M269.5,353.77l-.049.062Z" transform="translate(-247.579 -325.055)"/><path class="a" d="M252.379,373.25l-.039.039Z" transform="translate(-231.857 -342.953)"/><path class="a" d="M254.858,370.88l-.028.03Z" transform="translate(-234.145 -340.776)"/><path class="a" d="M287.127,329.32l-.067.1Z" transform="translate(-263.759 -302.589)"/><path class="a" d="M277.467,343.42c-.016.021-.032.043-.047.064A.435.435,0,0,1,277.467,343.42Z" transform="translate(-254.902 -315.545)"/><path class="a" d="M289.691,325.26l-.081.127Z" transform="translate(-266.102 -298.859)"/><path class="a" d="M258.916,3C255.337-.056,249.66-.272,246.6.182c3.709.641,7.3,2.485,8.409,7,.645,2.628.642,7.258-2.957,14.448-.057.114-.112.226-.171.343s-.115.225-.175.338c-.018.034-.036.068-.054.1-.041.081-.081.162-.126.239l-.069.128c-.038.071-.077.142-.116.213-.025.047-.051.094-.081.141-.037.069-.075.137-.114.205l-.081.145-.115.2c-.028.049-.055.1-.081.146l-.118.205-.081.144c-.043.074-.087.147-.131.221-.024.042-.05.081-.075.127-.066.111-.133.222-.2.334l-.093.153-.115.188-.109.174-.1.162c-.038.06-.076.121-.115.181l-.1.153-.121.188-.092.14-.128.194-.081.127-.136.2-.067.1c-.244.36-.493.71-.739,1.046-.016.021-.032.043-.047.064l-.162.216-.056.075c-.054.07-.106.14-.162.209l-.055.071c-.054.07-.107.138-.162.206l-.049.062-.169.209c-.009.011-.019.024-.029.035-.325.4-.649.763-.96,1.084l-.028.03-.162.162-.039.039-.156.149-.04.037c-.052.049-.1.095-.155.14l-.032.027c-.054.047-.107.093-.162.137h0c.111-.037.218-.074.311-.114,11.224-4.72,16.827-12.694,16.827-19.156A10.806,10.806,0,0,0,258.916,3Z" transform="translate(-225.701 -0.001)"/><path class="a" d="M305.155,300.67c-.024.042-.049.081-.075.127C305.106,300.754,305.131,300.712,305.155,300.67Z" transform="translate(-280.316 -276.265)"/><path class="a" d="M7.253,42.7c1-4.59,5.64-6.346,8.136-7.29.37-.14.689-.26.928-.364.643-.279.861-.525.886-.589a.308.308,0,0,0,.042-.195.541.541,0,0,0-.234-.411,2.652,2.652,0,0,0-.244-.139,10.9,10.9,0,0,0-3.545-.544c-.283-.009-8.036,0-11.526,5A9.145,9.145,0,0,0,.065,44.531C1,53.872,12.26,59.37,16.712,61.191c.148.06.325.121.5.177C9.485,53.546,6.225,47.444,7.253,42.7Z" transform="translate(0.003 -30.479)"/><path class="a" d="M114.843,18.47a3.524,3.524,0,0,1,1.17,1.252c.479.893.893,2.267-1.487,3.3-3.483,1.511-17.589,4.576,1.552,23.85C119.6,45.029,136.425,18.47,114.843,18.47Z" transform="translate(-97.626 -16.971)"/><path class="a" d="M537.8,322.59h1.743v.337h-1.365v1.348h1.191v.308h-1.191v1.5H539.6v.337h-1.8Z" transform="translate(-494.147 -296.405)"/><path class="a" d="M566.29,334.841V331.82h.232l.11.36a1.546,1.546,0,0,1,1.028-.43.806.806,0,0,1,.837.918v2.173h-.378v-2.11c0-.465-.221-.649-.563-.649a1.417,1.417,0,0,0-.889.372v2.382Z" transform="translate(-520.324 -304.822)"/><path class="a" d="M603.724,319.73V323.1c0,.3.088.406.291.442l.093.018.023.041-.058.226a.426.426,0,0,1-.186.041.517.517,0,0,1-.517-.528h-.029a1.068,1.068,0,0,1-.907.528c-.546,0-.974-.39-.974-1.418v-.284c0-1.046.464-1.461,1.115-1.461a1.247,1.247,0,0,1,.773.285V319.73Zm-1.888,2.7c0,.709.2,1.1.639,1.1a1.16,1.16,0,0,0,.872-.587v-1.623a1.178,1.178,0,0,0-.721-.274c-.447,0-.79.261-.79,1.168Z" transform="translate(-552.639 -293.778)"/><path class="a" d="M640.2,320.726a.256.256,0,1,1-.256.256.243.243,0,0,1,.256-.256Zm-.186.964h.377v3.021h-.377Z" transform="translate(-588.001 -294.693)"/><path class="a" d="M655.34,334.841V331.82h.232l.11.36a1.557,1.557,0,0,1,1.028-.43.806.806,0,0,1,.837.918v2.173h-.377v-2.11c0-.465-.221-.649-.564-.649a1.436,1.436,0,0,0-.893.372v2.382Z" transform="translate(-602.146 -304.822)"/><path class="a" d="M690.548,331.743a1.019,1.019,0,0,1,.773.314.73.73,0,0,1,.558-.243h.087v.3l-.046.041c-.006,0-.041-.006-.076-.006a.554.554,0,0,0-.372.128,1.043,1.043,0,0,1,.116.487.941.941,0,0,1-1.04,1.011h-.07a1.2,1.2,0,0,1-.418-.07.725.725,0,0,0-.175.4c0,.18.122.3.348.3h.666c.627,0,.93.348.93.755v.046c0,.425-.314.855-1.174.855h-.175c-.738,0-1.093-.338-1.093-.756v-.017a.757.757,0,0,1,.4-.634v-.011a.516.516,0,0,1-.254-.45,1.033,1.033,0,0,1,.268-.61.937.937,0,0,1-.366-.819.983.983,0,0,1,1.04-1.023Zm-.325,3a1.046,1.046,0,0,1-.116-.006.612.612,0,0,0-.337.511c0,.308.249.5.743.5h.116c.6,0,.825-.2.825-.528V335.2c0-.25-.157-.453-.592-.453Zm-.406-2v.041a.619.619,0,0,0,.7.674.611.611,0,0,0,.7-.674v-.041a.7.7,0,0,0-1.4,0Z" transform="translate(-633.432 -304.815)"/><path class="a" d="M741.29,325.273l.064-.029a3.147,3.147,0,0,0,.744.1c.622,0,.865-.308.865-.812,0-.343-.186-.552-.6-.68l-.406-.127a.946.946,0,0,1-.778-.964c0-.61.348-1.055,1.185-1.055a3.287,3.287,0,0,1,.692.081c-.006.116-.024.291-.024.291l-.052.035a2.88,2.88,0,0,0-.61-.07c-.622,0-.812.3-.812.7a.64.64,0,0,0,.541.668l.4.123a1.012,1.012,0,0,1,.848,1c0,.639-.314,1.145-1.244,1.145a2.949,2.949,0,0,1-.8-.1C741.29,325.441,741.29,325.273,741.29,325.273Z" transform="translate(-681.018 -295.597)"/><path class="a" d="M775.313,331.75c.721,0,1.136.535,1.136,1.461v.244c0,.924-.418,1.461-1.136,1.461h-.046c-.721,0-1.136-.535-1.136-1.461v-.244c0-.924.418-1.461,1.136-1.461Zm.761,1.389c0-.622-.233-1.055-.785-1.055s-.784.43-.784,1.055v.389c0,.627.232,1.046.784,1.046s.785-.419.785-1.046Z" transform="translate(-711.294 -304.822)"/><path class="a" d="M811.185,334.736a1.7,1.7,0,0,1-.662.134c-.778,0-1.2-.4-1.2-1.493v-.087c0-1.162.436-1.58,1.237-1.58a1.814,1.814,0,0,1,.568.088c-.011.11-.041.284-.041.284l-.041.029a2.277,2.277,0,0,0-.487-.064c-.517,0-.86.215-.86,1.249v.081c0,1.006.424,1.157.848,1.157a1.916,1.916,0,0,0,.552-.1l.046.029C811.15,334.493,811.173,334.629,811.185,334.736Z" transform="translate(-743.627 -304.785)"/><path class="a" d="M838.342,320.726a.256.256,0,1,1-.256.256.244.244,0,0,1,.256-.256Zm-.182.964h.378v3.021h-.378Z" transform="translate(-770.058 -294.693)"/><path class="a" d="M853.149,332.912c0-.546-.169-.826-.825-.826a2.672,2.672,0,0,0-.755.116l-.046-.041c0-.028.041-.25.052-.3a2.64,2.64,0,0,1,.778-.116c.872,0,1.174.4,1.174,1.162v1.231c0,.314.1.406.291.442l.093.018.023.041c-.011.041-.058.226-.058.226a.425.425,0,0,1-.186.041c-.3,0-.494-.209-.523-.552h-.017a1.061,1.061,0,0,1-.942.552.874.874,0,0,1-.9-.893v-.029c0-.535.291-.86.929-.935l.912-.113Zm0,1.075v-.726l-.812.1c-.487.058-.649.278-.649.6v.029a.551.551,0,0,0,.581.587A1.123,1.123,0,0,0,853.149,333.987Z" transform="translate(-782.207 -304.822)"/><path class="a" d="M890.517,319.73V323.1c0,.343.11.43.32.43a.874.874,0,0,0,.18-.018l.046.047v.261a1.014,1.014,0,0,1-.314.046c-.436,0-.61-.267-.61-.749V319.73Z" transform="translate(-817.887 -293.778)"/><path class="a" d="M924,322.59h.378v3.834H924Z" transform="translate(-848.999 -296.405)"/><path class="a" d="M936.713,334.539l.058-.041a3.585,3.585,0,0,0,.709.076c.506,0,.773-.192.773-.576,0-.261-.14-.424-.568-.523l-.337-.076c-.471-.1-.738-.285-.738-.778,0-.459.284-.872,1.115-.872a3.729,3.729,0,0,1,.649.075c-.012.116-.024.274-.029.3l-.058.029a3.6,3.6,0,0,0-.563-.064c-.568,0-.738.221-.738.535,0,.25.18.389.487.459l.343.076c.587.128.812.413.812.842,0,.587-.378.912-1.136.912a3.5,3.5,0,0,1-.756-.075C936.723,334.725,936.713,334.539,936.713,334.539Z" transform="translate(-860.585 -304.822)"/><path class="a" d="M968.8,331.75c.721,0,1.136.535,1.136,1.461v.244c0,.924-.418,1.461-1.136,1.461h-.046c-.72,0-1.136-.535-1.136-1.461v-.244c0-.924.419-1.461,1.136-1.461Zm.761,1.389c0-.622-.232-1.055-.784-1.055s-.785.43-.785,1.055v.389c0,.627.233,1.046.785,1.046s.784-.419.784-1.046Z" transform="translate(-889.078 -304.822)"/><path class="a" d="M1004.837,319.73V323.1c0,.343.11.43.32.43a.865.865,0,0,0,.18-.018l.046.047v.261a1.013,1.013,0,0,1-.314.046c-.435,0-.61-.267-.61-.749V319.73Z" transform="translate(-922.928 -293.778)"/><path class="a" d="M1022.049,332.912c0-.546-.169-.826-.825-.826a2.672,2.672,0,0,0-.755.116l-.046-.041c0-.028.041-.25.052-.3a2.64,2.64,0,0,1,.778-.116c.872,0,1.174.4,1.174,1.162v1.231c0,.314.1.406.291.442l.093.018.024.041c-.011.041-.058.226-.058.226a.426.426,0,0,1-.186.041c-.3,0-.494-.209-.523-.552h-.017a1.061,1.061,0,0,1-.942.552.874.874,0,0,1-.9-.893v-.029c0-.535.291-.86.929-.935l.912-.111Zm0,1.075v-.726l-.812.1c-.487.058-.649.278-.649.6v.029a.551.551,0,0,0,.581.587A1.135,1.135,0,0,0,1022.049,333.987Z" transform="translate(-937.397 -304.822)"/><path class="a" d="M1055.561,324.7H1056l.086-.7h.291v.7h.773v.337h-.773v1.9c0,.406.174.517.425.517a1.381,1.381,0,0,0,.3-.035l.052.029v.288a1.36,1.36,0,0,1-.389.058c-.517,0-.761-.261-.761-.843v-1.914h-.436Z" transform="translate(-969.88 -297.701)"/><path class="a" d="M1081.162,320.726a.256.256,0,1,1-.256.256.243.243,0,0,1,.256-.256Zm-.186.964h.377v3.021h-.377Z" transform="translate(-993.169 -294.693)"/><path class="a" d="M1095.863,331.75c.72,0,1.136.535,1.136,1.461v.244c0,.924-.419,1.461-1.136,1.461h-.047c-.72,0-1.136-.535-1.136-1.461v-.244c0-.924.418-1.461,1.136-1.461Zm.761,1.389c0-.622-.232-1.055-.784-1.055s-.784.43-.784,1.055v.389c0,.627.232,1.046.784,1.046s.784-.419.784-1.046Z" transform="translate(-1005.825 -304.822)"/><path class="a" d="M1131.52,334.841V331.82h.232l.11.36a1.558,1.558,0,0,1,1.028-.43.806.806,0,0,1,.837.918v2.173h-.378v-2.11c0-.465-.221-.649-.563-.649a1.435,1.435,0,0,0-.893.372v2.382Z" transform="translate(-1039.674 -304.822)"/><path class="a" d="M537.56,42h2.814c1.686,0,2.51.787,2.51,2.232v.1c0,.812-.2,1.42-.989,1.7v.051a1.753,1.753,0,0,1,1.243,1.948v.1a2,2,0,0,1-2.13,2.231H537.56Zm2.155,1.648v1.776h.507c.342,0,.506-.228.506-.7v-.279c0-.507-.177-.8-.633-.8Zm0,3.3v1.774h.761c.342,0,.507-.228.507-.7v-.38c0-.469-.266-.7-.76-.7Z" transform="translate(-493.926 -38.591)"/><path class="a" d="M616.207,66v.317c0,.519.2.786,1.154.786a6.2,6.2,0,0,0,1.343-.244l.178.089s.114.786.162,1.47a5.018,5.018,0,0,1-2.18.457c-1.889,0-2.815-1.015-2.815-3.258v-.456c0-2.015,1.065-3.182,2.637-3.182h.215c1.534,0,2.346.912,2.346,2.675v.216A8.777,8.777,0,0,1,619.134,66Zm0-1.141h1.015v-.925c0-.406-.178-.558-.431-.558-.228,0-.584.162-.584.812Z" transform="translate(-564.207 -56.949)"/><path class="a" d="M683.792,71.5c-.356,1.2-.8,1.711-1.826,1.711a4.343,4.343,0,0,1-1.5-.278l.19-1.38.216-.2a2.163,2.163,0,0,0,.431.089c.278,0,.443-.178.558-.568l.1-.343L679.71,63.94h2.079l.875,2.611.19,1.23h.1l.2-1.23.786-2.611h2.117Z" transform="translate(-624.538 -58.75)"/><path class="a" d="M762.316,62c1.572,0,2.624,1.166,2.624,3.182v.532c0,2.015-1.055,3.182-2.624,3.182h-.2c-1.571,0-2.623-1.166-2.623-3.182v-.532c0-2.015,1.055-3.182,2.623-3.182Zm.469,2.421c0-.6-.266-.774-.568-.774s-.568.178-.568.774v2.043c0,.6.266.786.568.786s.568-.19.568-.786Z" transform="translate(-697.842 -56.968)"/><path class="a" d="M835.23,68.744V62.153H836.5l.622.748a2.614,2.614,0,0,1,1.939-.9,1.691,1.691,0,0,1,1.749,1.851v4.893h-2.155V64.219c0-.279-.162-.444-.506-.444a1.807,1.807,0,0,0-.761.216v4.753Z" transform="translate(-767.434 -56.968)"/><path class="a" d="M918.2,42.526c0,.266.076.406.355.456l.266.038.089.2c-.063.355-.254,1.128-.254,1.128a1.494,1.494,0,0,1-1.128.447,1.394,1.394,0,0,1-1.255-.659h-.1a1.936,1.936,0,0,1-1.461.659c-1.305,0-2.218-.951-2.218-3.195v-.38c0-2.459.913-3.321,2.485-3.321a3.532,3.532,0,0,1,1.065.19V35.77h2.155Zm-3.55-1.136c0,1.407.368,1.761.862,1.761a2.062,2.062,0,0,0,.532-.075v-3.35a3.447,3.447,0,0,0-.568-.051c-.568,0-.824.368-.824,1.572Z" transform="translate(-838.423 -32.867)"/><path class="a" d="M1029.82,46.661h.73l.634-1.521h1.521v1.521h1.408v1.775h-1.408v2.408c0,.519.115.786.609.786a2.678,2.678,0,0,0,.649-.063l.152.076v1.534a2.993,2.993,0,0,1-1.228.231c-1.927,0-2.333-.9-2.333-2.536V48.437h-.731Z" transform="translate(-946.229 -41.476)"/><path class="a" d="M1090.57,44.643V35.77h2.155v2.76h.025a2.415,2.415,0,0,1,1.648-.634,1.691,1.691,0,0,1,1.749,1.851v4.893h-2.155V40.118c0-.279-.162-.444-.506-.444a1.807,1.807,0,0,0-.761.216v4.753Z" transform="translate(-1002.048 -32.867)"/><path class="a" d="M1170,66v.317c0,.519.2.786,1.153.786a6.2,6.2,0,0,0,1.344-.244l.177.089s.115.786.162,1.47a5.012,5.012,0,0,1-2.18.457c-1.889,0-2.814-1.015-2.814-3.258v-.456c0-2.015,1.065-3.182,2.637-3.182h.217c1.534,0,2.345.912,2.345,2.675v.216a8.832,8.832,0,0,1-.114,1.128Zm0-1.141h1.015v-.925c0-.406-.178-.558-.431-.558-.229,0-.584.162-.584.812Z" transform="translate(-1073.047 -56.949)"/><path class="a" d="M538.834,183.69c-1.851,0-3.144-.874-3.144-3.955v-.444c0-3.084,1.305-4.272,3.422-4.272a4.4,4.4,0,0,1,1.2.162c-.05.7-.178,1.61-.178,1.61l-.152.075a4.106,4.106,0,0,0-.71-.076c-.912,0-1.369.709-1.369,2.522v.266c0,1.737.443,2.333,1.356,2.333a3.9,3.9,0,0,0,.834-.137l.152.076s.152.874.2,1.571A5.741,5.741,0,0,1,538.834,183.69Z" transform="translate(-492.208 -160.813)"/><path class="a" d="M601.766,196.89c1.572,0,2.624,1.166,2.624,3.181v.532c0,2.016-1.055,3.182-2.624,3.182h-.2c-1.572,0-2.624-1.166-2.624-3.182v-.532c0-2.015,1.055-3.181,2.624-3.181Zm.469,2.42c0-.6-.266-.773-.568-.773s-.568.177-.568.773v2.041c0,.6.266.786.568.786s.568-.19.568-.786Z" transform="translate(-550.324 -180.909)"/><path class="a" d="M674.68,203.664v-6.594h1.268l.625.75a2.611,2.611,0,0,1,1.939-.9,1.692,1.692,0,0,1,1.75,1.851v4.893H678.1v-4.528c0-.279-.162-.444-.507-.444a1.82,1.82,0,0,0-.761.215v4.757Z" transform="translate(-619.916 -180.936)"/><path class="a" d="M750.486,205.382l-1.636-6.592h2.08l.633,2.992.229,1.445h.177l.228-1.445.634-2.992h2.092l-1.647,6.592Z" transform="translate(-688.066 -182.654)"/><path class="a" d="M827.358,200.88v.317c0,.519.2.786,1.153.786a6.2,6.2,0,0,0,1.344-.244l.177.089s.114.786.162,1.47a5.02,5.02,0,0,1-2.18.456c-1.889,0-2.814-1.014-2.814-3.257v-.457c0-2.015,1.065-3.181,2.637-3.181h.215c1.534,0,2.345.912,2.345,2.679v.215a8.809,8.809,0,0,1-.114,1.128Zm0-1.136h1.015v-.925c0-.406-.178-.558-.431-.558-.228,0-.584.162-.584.812Z" transform="translate(-758.219 -180.881)"/><path class="a" d="M897.85,203.636v-6.594h1.268l.583.722a1.7,1.7,0,0,1,1.559-.874,2.21,2.21,0,0,1,.317.025l-.153,1.927-.253.127a2.273,2.273,0,0,0-.469-.051,1.23,1.23,0,0,0-.7.2v4.515Z" transform="translate(-824.971 -180.909)"/><path class="a" d="M948.025,201.948l.19-.1a11.92,11.92,0,0,0,1.661.162c.828,0,.99-.137.99-.429,0-.162-.1-.291-.393-.343l-1.078-.19a1.676,1.676,0,0,1-1.542-1.661c-.051-1.636.7-2.5,2.89-2.5a8.722,8.722,0,0,1,1.559.152,12.538,12.538,0,0,1-.153,1.648l-.19.1a8.6,8.6,0,0,0-1.2-.127c-.761,0-.874.19-.874.418,0,.162.114.266.317.3l.875.153c1.305.228,1.826.836,1.826,1.914,0,1.521-.672,2.332-2.827,2.332a10.3,10.3,0,0,1-1.867-.162A15.2,15.2,0,0,1,948.025,201.948Z" transform="translate(-870.913 -180.909)"/><path class="a" d="M1018.448,196.89c2.273,0,3.106.824,3.106,2.535v2.092c0,.266.076.406.355.456l.266.038.089.2c-.063.355-.253,1.128-.253,1.128a1.5,1.5,0,0,1-1.128.443,1.4,1.4,0,0,1-1.306-.748h-.075a1.941,1.941,0,0,1-1.534.748,1.722,1.722,0,0,1-1.737-1.851v-.328a1.686,1.686,0,0,1,1.649-1.9l1.521-.191v-.063c0-.519-.244-.786-1.306-.786a9.584,9.584,0,0,0-1.242.1l-.191-.127a13.335,13.335,0,0,1,.3-1.649A14.157,14.157,0,0,1,1018.448,196.89Zm.951,5.033v-1.371l-.52.2a.653.653,0,0,0-.494.621v.231a.486.486,0,0,0,.507.532.782.782,0,0,0,.507-.217Z" transform="translate(-933.743 -180.909)"/><path class="a" d="M1094.48,181.541h.73l.634-1.521h1.521v1.521h1.408v1.774h-1.408v2.409c0,.519.115.786.609.786a2.66,2.66,0,0,0,.649-.063l.153.076v1.531a3.042,3.042,0,0,1-1.23.228c-1.927,0-2.333-.9-2.333-2.535v-2.435h-.731Z" transform="translate(-1005.641 -165.408)"/><path class="a" d="M1154.58,166.28c.71,0,1.23.342,1.23,1.055s-.52,1.055-1.23,1.055-1.23-.343-1.23-1.055S1153.87,166.28,1154.58,166.28Zm-1.077,9.231v-6.594h2.155v6.594Z" transform="translate(-1059.733 -152.783)"/><path class="a" d="M1193.187,196.89c1.572,0,2.624,1.166,2.624,3.181v.532c0,2.016-1.055,3.182-2.624,3.182h-.2c-1.571,0-2.624-1.166-2.624-3.182v-.532c0-2.015,1.055-3.181,2.624-3.181Zm.469,2.42c0-.6-.266-.773-.568-.773s-.568.177-.568.773v2.041c0,.6.266.786.568.786s.568-.19.568-.786Z" transform="translate(-1093.739 -180.909)"/><path class="a" d="M1266.11,203.636v-6.594h1.267l.622.748a2.611,2.611,0,0,1,1.939-.9,1.691,1.691,0,0,1,1.749,1.851v4.9h-2.155v-4.528c0-.279-.162-.444-.507-.444a1.821,1.821,0,0,0-.761.215v4.757Z" transform="translate(-1163.34 -180.909)"/></svg>