<svg xmlns="http://www.w3.org/2000/svg" viewBox="0 0 1367.49 793.19"><defs><style>.cls-1{fill:none;}.cls-2{fill:#00acd8;}.cls-3{fill:#682145;}.cls-4{fill:#f18a00;}</style></defs><title>Asset 3</title><g id="Layer_2" data-name="Layer 2"><g id="Layer_1-2" data-name="Layer 1"><path class="cls-1" d="M796.5,374.18q1.49-2.85,2.93-5.67c1-1.94,1.91-3.83,2.87-5.75-1,1.92-1.88,3.81-2.87,5.75S797.49,372.28,796.5,374.18Z"/><path class="cls-1" d="M698,514.23l-.53.46Z"/><path class="cls-1" d="M701.21,511.27l-.66.61Z"/><path class="cls-1" d="M779.09,405.6l-2.19,3.72Z"/><path class="cls-1" d="M767,425.66c-.58.92-1.15,1.85-1.73,2.76Z"/><path class="cls-1" d="M770.71,419.59c-.64,1.06-1.29,2.11-1.94,3.16C769.42,421.7,770.07,420.65,770.71,419.59Z"/><path class="cls-1" d="M795.59,375.9l-2.11,4Z"/><path class="cls-1" d="M763.3,431.46,761.65,434Z"/><path class="cls-1" d="M759.62,437.17l-1.54,2.36Z"/><path class="cls-1" d="M775.64,411.44q-1.67,2.81-3.36,5.59Q774,414.24,775.64,411.44Z"/><path class="cls-1" d="M792.31,382.05l-1.93,3.58Z"/><path class="cls-1" d="M789.07,388l-1.9,3.44Z"/><path class="cls-1" d="M785.81,393.87c-.64,1.14-1.28,2.28-1.93,3.42C784.53,396.15,785.17,395,785.81,393.87Z"/><path class="cls-1" d="M782.48,399.75l-2,3.44Z"/><path class="cls-1" d="M735.2,472.2c-.32.42-.63.84-1,1.25C734.57,473,734.88,472.62,735.2,472.2Z"/><path class="cls-1" d="M731.58,477l-.93,1.2Z"/><path class="cls-1" d="M724.3,486.13l-.49.59Z"/><path class="cls-1" d="M727.94,481.59l-.82,1Z"/><path class="cls-1" d="M704.49,508.12l-.66.65Z"/><path class="cls-1" d="M707.7,504.89l-.49.5Z"/><path class="cls-1" d="M752.23,448.31,751.1,450Z"/><path class="cls-1" d="M738.69,467.51l-.79,1.07Z"/><path class="cls-1" d="M755.93,442.79l-1.41,2.12Z"/><path class="cls-2" d="M917.38,50.39C857.34-.95,762.13-4.57,710.86,3c62.19,10.77,122.44,41.69,141,117.39,10.82,44.07,10.77,121.71-49.59,242.34-1,1.92-1.88,3.81-2.87,5.75s-1.94,3.77-2.93,5.67l-.91,1.72-2.11,4-1.17,2.16-1.93,3.58c-.43.79-.87,1.58-1.31,2.37l-1.9,3.44c-.45.81-.9,1.62-1.36,2.43-.64,1.14-1.28,2.28-1.93,3.42l-1.4,2.46-2,3.44-1.4,2.41-2.19,3.72c-.42.71-.83,1.41-1.26,2.12q-1.67,2.81-3.36,5.59c-.52.85-1,1.71-1.57,2.56-.64,1.06-1.29,2.11-1.94,3.16L767,425.66l-1.73,2.76c-.64,1-1.29,2-1.93,3L761.65,434l-2,3.13-1.54,2.36c-.72,1.09-1.43,2.18-2.15,3.26l-1.41,2.12-2.29,3.4L751.1,450c-4.12,6-8.27,11.91-12.41,17.55l-.79,1.07q-1.35,1.83-2.7,3.62c-.32.42-.63.84-1,1.25q-1.34,1.77-2.67,3.5l-.93,1.2q-1.35,1.74-2.71,3.44l-.82,1q-1.41,1.77-2.82,3.5l-.49.59c-5.49,6.69-10.89,12.8-16.11,18.17l-.49.5c-.91.94-1.82,1.84-2.72,2.73l-.66.65c-.88.85-1.75,1.69-2.62,2.5l-.66.61c-.87.81-1.74,1.59-2.6,2.35l-.53.46c-.9.79-1.8,1.56-2.69,2.29h0c1.86-.63,3.64-1.25,5.21-1.91,188.25-79.16,282.21-212.91,282.21-321.27C982.13,152.28,971.2,96.41,917.38,50.39Z"/><path class="cls-3" d="M776.9,409.32c-.42.71-.83,1.41-1.26,2.12C776.07,410.73,776.48,410,776.9,409.32Z"/><path class="cls-4" d="M482,205c16.71-77,94.6-106.44,136.45-122.26,6.2-2.34,11.55-4.37,15.56-6.11,10.78-4.67,14.44-8.79,14.87-9.87a5.35,5.35,0,0,0,.7-3.27,9.08,9.08,0,0,0-3.92-6.89,42.92,42.92,0,0,0-4-2.33c-11-4.37-29.26-8.17-59.46-9.13-4.75-.15-134.74,0-193.3,83.8-36.92,52.83-27.49,105.76-27.39,106.7C377.11,392.34,566,484.55,640.65,515.08c2.47,1,5.44,2,8.45,3C519.44,386.86,464.76,284.45,482,205Z"/><path class="cls-3" d="M649.06,25.14a59.09,59.09,0,0,1,19.62,21c8,14.91,15,38-24.94,55.35-58.41,25.33-295,76.75,26,400C728.92,470.58,1011.08,25.14,649.06,25.14Z"/><path class="cls-3" d="M349.6,725.52h23.28V730H354.65v18h15.91v4.12H354.65v20.1h19v4.5H349.6Z"/><path class="cls-3" d="M380.49,776.74V736.38h3.1l1.48,4.81c3-2.63,7.52-5.74,13.73-5.74,7.06,0,11.18,4.58,11.18,12.26v29h-5.05V748.57c0-6.21-2.95-8.62-7.53-8.62-4.34,0-8.45,2.1-11.87,5v31.82Z"/><path class="cls-3" d="M448.85,722.41v45c0,4,1.17,5.43,3.89,5.89l1.24.24.31.54-.78,3a5.71,5.71,0,0,1-2.48.54c-4.12,0-6.52-2.95-6.91-7.06h-.39a14.26,14.26,0,0,1-12.1,7.06c-7.3,0-13-5.2-13-18.94v-3.8c0-14,6.21-19.48,14.9-19.48a16.67,16.67,0,0,1,10.32,3.8V722.41Zm-25.22,36c0,9.47,2.64,14.75,8.54,14.75,5.12,0,9-4.11,11.64-7.84V743.6a15.73,15.73,0,0,0-9.62-3.65c-6,0-10.56,3.49-10.56,15.6Z"/><path class="cls-3" d="M463.75,723.5a3.42,3.42,0,1,1-3.41,3.41A3.26,3.26,0,0,1,463.75,723.5Zm-2.48,12.88h5v40.36h-5Z"/><path class="cls-3" d="M477,776.74V736.38h3.1l1.48,4.81c3-2.63,7.53-5.74,13.74-5.74,7.06,0,11.17,4.58,11.17,12.26v29h-5V748.57c0-6.21-3-8.62-7.53-8.62-4.35,0-8.46,2.1-11.87,5v31.82Z"/><path class="cls-3" d="M529.4,735.45a13.6,13.6,0,0,1,10.32,4.19,9.77,9.77,0,0,1,7.45-3.26h1.17v4l-.62.54c-.08,0-.55-.08-1-.08a7.47,7.47,0,0,0-5,1.71,13.91,13.91,0,0,1,1.55,6.52c0,9.47-6.21,13.5-13.89,13.5h-.93a16.27,16.27,0,0,1-5.59-.93c-1.24,1.63-2.32,3.57-2.32,5.36,0,2.4,1.62,4,4.65,4h8.93c8.38,0,12.41,4.66,12.41,10.09v.62c0,5.67-4.19,11.41-15.67,11.41h-2.33c-9.86,0-14.59-4.5-14.59-10.09v-.23c0-3.57,2.09-6.36,5.35-8.46v-.16a6.88,6.88,0,0,1-3.41-6c0-2.64,1.47-5.59,3.57-8.15-3-2.09-4.89-5.74-4.89-10.94,0-7.68,5.28-13.66,13.89-13.66Zm-4.34,40.12a15.38,15.38,0,0,1-1.56-.07c-2.71,1.7-4.5,4-4.5,6.83,0,4.11,3.34,6.67,9.94,6.67h1.55c8,0,11-2.72,11-7.06v-.31c0-3.34-2.1-6.06-7.92-6.06Zm-5.44-26.69v.54c0,5.35,2.88,9,9.32,9,6.75,0,9.31-3.72,9.31-9v-.54c0-5.12-3-9.24-9.31-9.24S519.62,743.76,519.62,748.88Z"/><path class="cls-3" d="M571.54,772.16l.85-.39a42,42,0,0,0,9.93,1.4c8.31,0,11.57-4.11,11.57-10.79,0-4.58-2.49-7.37-8-9.08l-5.43-1.71c-6.52-2-10.4-5.82-10.4-12.88,0-8.15,4.66-14.12,15.83-14.12a44,44,0,0,1,9.24,1.08c-.08,1.55-.31,3.88-.31,3.88l-.7.47a38.5,38.5,0,0,0-8.15-.93c-8.3,0-10.86,4-10.86,9.31,0,4.58,2.09,7.37,7.21,8.92L587.6,749c7.61,2.33,11.33,6.76,11.33,13.43,0,8.54-4.19,15.29-16.61,15.29a39.15,39.15,0,0,1-10.63-1.4C571.54,774.41,571.54,772.16,571.54,772.16Z"/><path class="cls-3" d="M621.59,735.45c9.62,0,15.21,7.14,15.21,19.48v3.26c0,12.34-5.59,19.48-15.21,19.48H621c-9.62,0-15.21-7.14-15.21-19.48v-3.26c0-12.34,5.59-19.48,15.21-19.48ZM631.76,754c0-8.3-3.11-14-10.48-14s-10.48,5.75-10.48,14v5.2c0,8.38,3.11,14,10.48,14s10.48-5.59,10.48-14Z"/><path class="cls-3" d="M668.85,775.88a22.82,22.82,0,0,1-8.85,1.79c-10.4,0-16.06-5.36-16.06-19.95v-1.16c0-15.52,5.82-21.11,16.53-21.11a24.17,24.17,0,0,1,7.6,1.17c-.15,1.47-.54,3.8-.54,3.8l-.54.39a30.29,30.29,0,0,0-6.52-.86c-6.91,0-11.49,2.87-11.49,16.69v1.08c0,13.43,5.67,15.45,11.33,15.45a25.59,25.59,0,0,0,7.38-1.4l.62.39C668.38,772.55,668.69,774.41,668.85,775.88Z"/><path class="cls-3" d="M678.55,723.5a3.42,3.42,0,1,1-3.42,3.41A3.25,3.25,0,0,1,678.55,723.5Zm-2.49,12.88h5.05v40.36h-5.05Z"/><path class="cls-3" d="M714.09,751c0-7.29-2.25-11-11-11A35.79,35.79,0,0,0,693,741.5l-.62-.54c0-.39.54-3.34.7-4a35.26,35.26,0,0,1,10.4-1.55c11.64,0,15.67,5.28,15.67,15.52v16.46c0,4.19,1.32,5.43,3.88,5.89l1.25.24.31.54c-.16.54-.78,3-.78,3a5.71,5.71,0,0,1-2.48.54c-4,0-6.6-2.79-7-7.37h-.23c-2.48,4-6.36,7.37-12.57,7.37a11.68,11.68,0,0,1-12-11.95v-.39c0-7.14,3.88-11.49,12.42-12.49l12.18-1.48Zm0,14.36v-9.7L703.22,757c-6.51.77-8.69,3.72-8.69,8v.39c0,4.73,3.11,7.84,7.76,7.84C707.73,773.17,711.53,769.06,714.09,765.33Z"/><path class="cls-3" d="M736.59,722.41v45c0,4.57,1.48,5.74,4.27,5.74a11.51,11.51,0,0,0,2.41-.24l.62.63v3.49a13.46,13.46,0,0,1-4.19.62c-5.82,0-8.15-3.57-8.15-10V722.41Z"/><path class="cls-3" d="M768.25,725.52h5v51.22h-5Z"/><path class="cls-3" d="M783.31,772.7l.77-.54a47.89,47.89,0,0,0,9.47,1c6.75,0,10.32-2.56,10.32-7.69,0-3.49-1.86-5.66-7.6-7l-4.5-1c-6.29-1.4-9.86-3.8-9.86-10.4,0-6.13,3.8-11.64,14.9-11.64a49.57,49.57,0,0,1,8.69,1c-.15,1.55-.31,3.65-.39,4l-.77.39a48,48,0,0,0-7.53-.86c-7.6,0-9.86,2.95-9.86,7.14,0,3.34,2.41,5.2,6.52,6.13l4.58,1c7.84,1.71,10.87,5.51,10.87,11.25,0,7.84-5,12.19-15.14,12.19a46.68,46.68,0,0,1-10.09-1C783.46,775.19,783.31,772.7,783.31,772.7Z"/><path class="cls-3" d="M831.34,735.45c9.63,0,15.21,7.14,15.21,19.48v3.26c0,12.34-5.58,19.48-15.21,19.48h-.62c-9.62,0-15.21-7.14-15.21-19.48v-3.26c0-12.34,5.59-19.48,15.21-19.48ZM841.51,754c0-8.3-3.11-14-10.48-14s-10.47,5.75-10.47,14v5.2c0,8.38,3.1,14,10.47,14s10.48-5.59,10.48-14Z"/><path class="cls-3" d="M860.52,722.41v45c0,4.57,1.47,5.74,4.27,5.74a11.47,11.47,0,0,0,2.4-.24l.62.63v3.49a13.39,13.39,0,0,1-4.19.62c-5.82,0-8.14-3.57-8.14-10V722.41Z"/><path class="cls-3" d="M897.15,751c0-7.29-2.25-11-11-11A35.79,35.79,0,0,0,876,741.5l-.62-.54c0-.39.54-3.34.7-4a35.26,35.26,0,0,1,10.4-1.55c11.64,0,15.67,5.28,15.67,15.52v16.46c0,4.19,1.32,5.43,3.88,5.89l1.24.24.31.54c-.15.54-.77,3-.77,3a5.71,5.71,0,0,1-2.48.54c-4,0-6.6-2.79-7-7.37h-.23c-2.48,4-6.37,7.37-12.57,7.37a11.68,11.68,0,0,1-12-11.95v-.39c0-7.14,3.88-11.49,12.41-12.49l12.19-1.48Zm0,14.36v-9.7L886.28,757c-6.52.77-8.69,3.72-8.69,8v.39c0,4.73,3.11,7.84,7.76,7.84C890.78,773.17,894.59,769.06,897.15,765.33Z"/><path class="cls-3" d="M910.88,736.38h5.82l1.17-9.31h3.88v9.31h10.32v4.5H921.75v25.38c0,5.43,2.32,6.91,5.66,6.91a18.19,18.19,0,0,0,4-.47l.7.39v3.8a18.21,18.21,0,0,1-5.2.78c-6.91,0-10.17-3.49-10.17-11.25V740.88h-5.82Z"/><path class="cls-3" d="M941.77,723.5a3.42,3.42,0,1,1-3.42,3.41A3.25,3.25,0,0,1,941.77,723.5Zm-2.49,12.88h5.05v40.36h-5.05Z"/><path class="cls-3" d="M969.08,735.45c9.63,0,15.21,7.14,15.21,19.48v3.26c0,12.34-5.58,19.48-15.21,19.48h-.62c-9.62,0-15.21-7.14-15.21-19.48v-3.26c0-12.34,5.59-19.48,15.21-19.48ZM979.25,754c0-8.3-3.11-14-10.48-14s-10.48,5.75-10.48,14v5.2c0,8.38,3.11,14,10.48,14s10.48-5.59,10.48-14Z"/><path class="cls-3" d="M993.21,776.74V736.38h3.11l1.47,4.81c3-2.63,7.53-5.74,13.74-5.74,7.06,0,11.18,4.58,11.18,12.26v29h-5.05V748.57c0-6.21-2.95-8.62-7.53-8.62-4.34,0-8.46,2.1-11.87,5v31.82Z"/><path class="cls-3" d="M0,586.09H30.85c18.48,0,27.51,8.61,27.51,24.45v1.12c0,8.89-2.22,15.56-10.84,18.62v.55c10.84,3.06,13.62,11.68,13.62,21.4v1.11c0,12.09-5.69,24.46-23.34,24.46H0Zm23.62,18.06v19.46h5.56c3.75,0,5.56-2.51,5.56-7.65v-3.05c0-5.56-2-8.76-7-8.76Zm0,36.13v19.46H32c3.75,0,5.56-2.51,5.56-7.65v-4.17c0-5.14-2.92-7.64-8.34-7.64Z"/><path class="cls-3" d="M91.71,647.92v3.48c0,5.7,2.23,8.61,12.65,8.61,5.7,0,14.73-2.64,14.73-2.64l1.94,1s1.25,8.61,1.81,16.12c0,.13-9.87,5-23.9,5-20.71,0-30.85-11.12-30.85-35.71v-5c0-22.09,11.67-34.88,28.9-34.88h2.36c16.82,0,25.71,10,25.71,29.32v2.37a96.34,96.34,0,0,1-1.25,12.36Zm0-12.5h11.12V625.27c0-4.44-2-6.11-4.73-6.11-2.5,0-6.39,1.81-6.39,8.89Z"/><path class="cls-3" d="M171.2,688.5c-3.89,13.2-8.76,18.76-20,18.76a47.52,47.52,0,0,1-16.4-3.06l2.09-15.14,2.36-2.23a23.62,23.62,0,0,0,4.72,1c3.06,0,4.87-1.95,6.12-6.26l1.11-3.75-24.74-72.26h22.79l9.59,28.63,2.09,13.48H162l2.22-13.48,8.62-28.63h23.2Z"/><path class="cls-3" d="M228.45,603.87c17.23,0,28.77,12.79,28.77,34.88v5.84c0,22.09-11.54,34.88-28.77,34.88h-2.22c-17.23,0-28.77-12.79-28.77-34.88v-5.84c0-22.09,11.54-34.88,28.77-34.88Zm5.14,26.55c0-6.54-2.91-8.48-6.25-8.48s-6.25,1.94-6.25,8.48v22.37c0,6.53,2.91,8.61,6.25,8.61s6.25-2.08,6.25-8.61Z"/><path class="cls-3" d="M264.86,677.8V605.54h13.89l6.81,8.2c4.59-4.73,11.12-9.87,21.26-9.87,11.82,0,19.18,8.2,19.18,20.29V677.8H302.38V628.19c0-3.06-1.81-4.86-5.56-4.86a19.94,19.94,0,0,0-8.34,2.36V677.8Z"/><path class="cls-3" d="M396.17,654.59c0,2.92.84,4.45,3.9,5L403,660l1,2.23c-.7,3.89-2.78,12.36-2.78,12.36s-4,4.87-12.37,4.87c-6.67,0-11.26-3.06-13.76-7.23h-1.11a21.2,21.2,0,0,1-16,7.23c-14.31,0-24.32-10.42-24.32-35v-4.17c0-27,10-36.41,27.24-36.41A38.72,38.72,0,0,1,372.55,606V580.53h23.62Zm-38.9-12.5c0,15.42,4,19.31,9.44,19.31a22.5,22.5,0,0,0,5.84-.83V623.88a39.64,39.64,0,0,0-6.25-.55c-6.26,0-9,4-9,17.23Z"/><path class="cls-3" d="M438,605.54h8.06L453,588.87h16.67v16.67h15.43V625H469.68v26.4c0,5.7,1.25,8.61,6.67,8.61a29.38,29.38,0,0,0,7.09-.69l1.67.83V677s-5.14,2.5-13.48,2.5c-21.12,0-25.57-9.87-25.57-27.79V625H438Z"/><path class="cls-3" d="M492.05,677.8V580.53h23.63v30.29H516a26.52,26.52,0,0,1,18.07-7c11.81,0,19.18,8.2,19.18,20.29V677.8H529.57V628.19c0-3.06-1.8-4.86-5.56-4.86a19.89,19.89,0,0,0-8.33,2.36V677.8Z"/><path class="cls-3" d="M584.46,647.92v3.48c0,5.7,2.22,8.61,12.65,8.61,5.69,0,14.73-2.64,14.73-2.64l1.94,1s1.25,8.61,1.81,16.12c0,.13-9.87,5-23.9,5-20.71,0-30.85-11.12-30.85-35.71v-5c0-22.09,11.67-34.88,28.9-34.88h2.36c16.82,0,25.71,10,25.71,29.32v2.37a96.34,96.34,0,0,1-1.25,12.36Zm0-12.5h11.12V625.27c0-4.44-2-6.11-4.73-6.11-2.5,0-6.39,1.81-6.39,8.89Z"/><path class="cls-3" d="M690.9,679.47c-20.29,0-34.46-9.59-34.46-43.36v-4.86c0-33.77,14.31-46.83,37.52-46.83a48.43,48.43,0,0,1,13.2,1.8c-.55,7.65-1.94,17.65-1.94,17.65l-1.67.84a44.33,44.33,0,0,0-7.78-.84c-10,0-15,7.79-15,27.66v2.91c0,19,4.86,25.57,14.87,25.57a42.92,42.92,0,0,0,9.17-1.52l1.67.83s1.66,9.59,2.22,17.23A63,63,0,0,1,690.9,679.47Z"/><path class="cls-3" d="M743.71,603.87c17.23,0,28.76,12.79,28.76,34.88v5.84c0,22.09-11.53,34.88-28.76,34.88h-2.23c-17.23,0-28.76-12.79-28.76-34.88v-5.84c0-22.09,11.53-34.88,28.76-34.88Zm5.14,26.55c0-6.54-2.92-8.48-6.25-8.48s-6.26,1.94-6.26,8.48v22.37c0,6.53,2.92,8.61,6.26,8.61s6.25-2.08,6.25-8.61Z"/><path class="cls-3" d="M780.11,677.8V605.54H794l6.81,8.2c4.58-4.73,11.12-9.87,21.26-9.87,11.81,0,19.18,8.2,19.18,20.29V677.8H817.63V628.19c0-3.06-1.8-4.86-5.56-4.86a19.89,19.89,0,0,0-8.33,2.36V677.8Z"/><path class="cls-3" d="M864.05,677.8l-17.93-72.26h22.79l7,32.8,2.5,15.84h1.94l2.51-15.84,6.94-32.8h22.93L894.62,677.8Z"/><path class="cls-3" d="M937.7,647.92v3.48c0,5.7,2.22,8.61,12.64,8.61,5.7,0,14.73-2.64,14.73-2.64l1.95,1s1.25,8.61,1.8,16.12c0,.13-9.86,5-23.9,5-20.7,0-30.85-11.12-30.85-35.71v-5c0-22.09,11.68-34.88,28.91-34.88h2.36c16.81,0,25.71,10,25.71,29.32v2.37a96.34,96.34,0,0,1-1.25,12.36Zm0-12.5h11.11V625.27c0-4.44-1.94-6.11-4.72-6.11-2.5,0-6.39,1.81-6.39,8.89Z"/><path class="cls-3" d="M978.69,677.8V605.54h13.89l6.4,7.92c3-4.72,7.5-9.59,17.09-9.59a23.59,23.59,0,0,1,3.47.28l-1.66,21.12-2.78,1.39a25.51,25.51,0,0,0-5.15-.55,13.49,13.49,0,0,0-7.64,2.22V677.8Z"/><path class="cls-3" d="M1025.1,659.32l2.09-1.11a131.1,131.1,0,0,0,18.2,1.8c9,0,10.84-1.52,10.84-4.72,0-1.81-1.11-3.2-4.31-3.75l-11.81-2.09c-9.31-1.66-16.68-7.36-16.95-18.2-.56-17.93,7.64-27.38,31.68-27.38a95.51,95.51,0,0,1,17.09,1.67,137.77,137.77,0,0,1-1.67,18.07l-2.08,1.11a94,94,0,0,0-13.2-1.39c-8.34,0-9.59,2.08-9.59,4.58,0,1.81,1.25,2.92,3.47,3.34l9.59,1.67c14.32,2.5,20,9.17,20,21,0,16.68-7.36,25.57-31,25.57a113.23,113.23,0,0,1-20.42-1.81A167.1,167.1,0,0,1,1025.1,659.32Z"/><path class="cls-3" d="M1108.34,603.87c24.87,0,34,9,34,27.8v22.92c0,2.92.84,4.45,3.89,5l2.92.41,1,2.23c-.7,3.89-2.78,12.36-2.78,12.36s-4,4.87-12.37,4.87c-7.09,0-11.81-3.48-14.31-8.2h-.84a21.28,21.28,0,0,1-16.81,8.2c-11.81,0-19-9-19-20.29v-3.61c0-13.2,6.53-19.46,18.06-20.85l16.68-2.08v-.7c0-5.69-2.64-8.61-14.31-8.61a105.39,105.39,0,0,0-13.62,1.11l-2.09-1.39a146.79,146.79,0,0,1,3.34-18.07A162.47,162.47,0,0,1,1108.34,603.87ZM1118.76,659V644l-5.7,2.23c-2.92,1.11-5.42,3-5.42,6.81v2.5c0,3.47,2.09,5.83,5.56,5.83A8.56,8.56,0,0,0,1118.76,659Z"/><path class="cls-3" d="M1153.64,605.54h8.06l7-16.67h16.67v16.67h15.43V625h-15.43v26.4c0,5.7,1.25,8.61,6.67,8.61a29.38,29.38,0,0,0,7.09-.69l1.67.83V677a33.39,33.39,0,0,1-13.48,2.5c-21.12,0-25.57-9.87-25.57-27.79V625h-8.06Z"/><path class="cls-3" d="M1219.5,576.64c7.79,0,13.48,3.75,13.48,11.53s-5.69,11.53-13.48,11.53S1206,596,1206,588.17,1211.72,576.64,1219.5,576.64ZM1207.69,677.8V605.54h23.63V677.8Z"/><path class="cls-3" d="M1270,603.87c17.23,0,28.76,12.79,28.76,34.88v5.84c0,22.09-11.53,34.88-28.76,34.88h-2.23c-17.23,0-28.76-12.79-28.76-34.88v-5.84c0-22.09,11.53-34.88,28.76-34.88Zm5.14,26.55c0-6.54-2.92-8.48-6.26-8.48s-6.25,1.94-6.25,8.48v22.37c0,6.53,2.92,8.61,6.25,8.61s6.26-2.08,6.26-8.61Z"/><path class="cls-3" d="M1306.35,677.8V605.54h13.9l6.81,8.2c4.58-4.73,11.11-9.87,21.26-9.87,11.81,0,19.17,8.2,19.17,20.29V677.8h-23.62V628.19c0-3.06-1.81-4.86-5.56-4.86a19.89,19.89,0,0,0-8.33,2.36V677.8Z"/></g></g></svg>