<svg xmlns="http://www.w3.org/2000/svg" xmlns:xlink="http://www.w3.org/1999/xlink" width="197" height="160" viewBox="0 0 197 160">
  <defs>
    <clipPath id="clip-path">
      <rect id="Rectangle_98" data-name="Rectangle 98" width="197" height="160" transform="translate(1435 2835.018)" fill="#e3ab7d" stroke="#707070" stroke-width="1"/>
    </clipPath>
  </defs>
  <g id="Mask_Group_6" data-name="Mask Group 6" transform="translate(-1435 -2835.018)" clip-path="url(#clip-path)">
    <g id="teacher" transform="translate(1449.613 2835)">
      <g id="Group_81" data-name="Group 81" transform="translate(0 0)">
        <g id="Group_80" data-name="Group 80">
          <path id="Path_536" data-name="Path 536" d="M99.024,5.452H4.276A4.276,4.276,0,0,0,0,9.728V79.947a4.276,4.276,0,0,0,4.276,4.276H97.285L86.028,77.233a11.957,11.957,0,0,1-2-1.562H8.552V14h86.2V55.522a11.847,11.847,0,0,1,3.809,1.533L103.3,60V9.728A4.276,4.276,0,0,0,99.024,5.452Z" transform="translate(0 -5.452)" fill="#e3ab7d"/>
        </g>
      </g>
      <g id="Group_83" data-name="Group 83" transform="translate(65.734 39.436)">
        <g id="Group_82" data-name="Group 82">
          <path id="Path_537" data-name="Path 537" d="M97.754,61.609a3.289,3.289,0,0,0-4.073,5.166l14.509,11.441a12.011,12.011,0,0,1,.706-1.322,11.829,11.829,0,0,1,3.585-3.672Z" transform="translate(-92.428 -60.903)" fill="#e3ab7d"/>
        </g>
      </g>
      <g id="Group_85" data-name="Group 85" transform="translate(125.225 10.491)">
        <g id="Group_84" data-name="Group 84">
          <circle id="Ellipse_8" data-name="Ellipse 8" cx="12.307" cy="12.307" r="12.307" fill="#e3ab7d"/>
        </g>
      </g>
      <g id="Group_87" data-name="Group 87" transform="translate(86.354 39.029)">
        <g id="Group_86" data-name="Group 86">
          <path id="Path_538" data-name="Path 538" d="M202.621,74.312A14.083,14.083,0,0,0,188.569,60.33h-5.959l-7.375,19.127,1.543-7.774a2.477,2.477,0,0,0-.259-1.675l-2.419-4.4,2.147-3.9a.873.873,0,0,0-.765-1.294H169.6a.873.873,0,0,0-.765,1.294l2.142,3.9-2.414,4.391a2.476,2.476,0,0,0-.252,1.708l1.782,7.758c-1.022-2.65-6.908-17.278-7.62-19.127h-5.843a14.083,14.083,0,0,0-14.052,13.982c-.032,6.411-.005,1.042-.056,11.1l-12.027-7.467a5.938,5.938,0,0,0-6.264,10.089L145.271,101.1a5.942,5.942,0,0,0,9.07-5.015c.012-2.324.1-18.943.109-21.717a1.243,1.243,0,0,1,2.485.008c-.006,28.614-.129,36.613-.129,99.814a7.126,7.126,0,1,0,14.252,0V117.237h3.076v56.957a7.126,7.126,0,1,0,14.252,0l0-99.816a1.178,1.178,0,0,1,2.356-.006L190.964,118A5.938,5.938,0,0,0,196.9,123.9h.031a5.938,5.938,0,0,0,5.908-5.968Z" transform="translate(-121.421 -60.33)" fill="#e3ab7d"/>
        </g>
      </g>
    </g>
  </g>
</svg>
