<svg xmlns="http://www.w3.org/2000/svg" viewBox="0 0 877.68 874.07"><defs><style>.cls-1{fill:#682145;}.cls-2{fill:#fff;}.cls-3{fill:#50260b;opacity:0.1;}.cls-4{fill:#00acd8;}.cls-5{fill:#f18a00;}</style></defs><title>Asset 4</title><g id="Layer_2" data-name="Layer 2"><g id="Layer_1-2" data-name="Layer 1"><path class="cls-1" d="M206,233.73a32.87,32.87,0,0,1,10.93,11.7c4.47,8.3,8.35,21.18-13.9,30.83C170.45,290.38,38.65,319,217.5,499.11,250.45,481.89,407.64,233.73,206,233.73Z"/><path class="cls-2" d="M627.05,298.18c16.69.66,33.35,1.92,50,2.44,48.92,1.52,107.22-5.2,137.12-49.63,32.07-47.66-1.39-104.8-47.58-127-48-23.07-109.59-21.59-157,2.25a153.64,153.64,0,0,0-22.93,14.2,195.82,195.82,0,0,0-28.49,28,151.55,151.55,0,0,0-24.85,48.51c-.42,1.72-.82,3.46-1.16,5.23-7.26,37.25,7.65,78.85,39.91,99-.8-8.28,5.22-17.42,13.74-20.76C598.38,295.51,614,297.65,627.05,298.18Z"/><path class="cls-1" d="M584.93,307.81c3.38-2.32,9.21-3.26,12.94-3.63,7.22-.71,14.8-.18,22,.09,15.91.58,31.78,1.92,47.67,2.79,28.12,1.55,57,2,84.38-5.84,40-11.44,79.29-41.49,82.27-85.92,3.32-49.58-35.62-88.71-79.34-104.57-47.63-17.28-104.07-14.46-149.32,8.56-28.89,14.71-54.47,40-69,70a117.18,117.18,0,0,0-12,37.66c-5.72,42.46,14.67,88.18,55,105.5l.07,0h0c.27.11.52.24.78.35,3.51,1.45,5.65-4.18,2.54-6C574.46,321.85,579.17,311.78,584.93,307.81Zm-12.82,13.38c-32.26-20.18-47.17-61.78-39.91-99,.34-1.77.74-3.51,1.16-5.23a151.55,151.55,0,0,1,24.85-48.51,195.82,195.82,0,0,1,28.49-28,153.64,153.64,0,0,1,22.93-14.2c47.41-23.84,109-25.32,157-2.25,46.19,22.19,79.65,79.33,47.58,127-29.9,44.43-88.2,51.15-137.12,49.63-16.69-.52-33.35-1.78-50-2.44-13-.53-28.67-2.67-41.2,2.25C577.33,303.77,571.31,312.91,572.11,321.19Z"/><path class="cls-3" d="M809.78,257c-23.47,20-55.55,29.31-86.7,32.06-36.92,3.24-74.09-1.27-111.11.22-8.05.33-16.21,1-23.73,3.83s-14.41,8.27-17.37,15.76a20.19,20.19,0,0,0-1,10.78c.76.51,1.48,1.06,2.25,1.55-.8-8.28,5.22-17.42,13.74-20.76,12.53-4.92,28.15-2.78,41.2-2.25,16.69.66,33.35,1.92,50,2.44C723.71,302.07,778.83,296,809.78,257Z"/><path class="cls-1" d="M688.17,233.73a33,33,0,0,1,10.93,11.7c4.47,8.3,8.34,21.18-13.9,30.83C652.66,290.38,520.86,319,699.7,499.11,732.66,481.89,889.85,233.73,688.17,233.73Z"/><path class="cls-2" d="M223.63,205.14c25.92-1.11,57.07-2.91,74.88,18.18,4.92-12.25,17.74-16.16,31.11-19.42,23.72-5.79,45.45-20.62,58.72-41.22,23.83-37,16.49-89-15.56-118.76C339,12.48,284.46,5.76,240.27,9c-31,2.24-62.35,12.57-86.31,32a102.8,102.8,0,0,0-24.28,30.9,90.26,90.26,0,0,0,4.64,89.81C154.49,193.23,187.15,206.7,223.63,205.14Z"/><path class="cls-3" d="M212.35,200.39a112.64,112.64,0,0,1-41.75-5.71c15.79,7.91,33.87,11.28,53,10.46,16.48-.71,35.06-1.67,51,3.13C256.75,198.24,232.91,199.51,212.35,200.39Z"/><path class="cls-3" d="M372.78,43.92C361.41,33.35,347.7,25.58,332.83,20A112.81,112.81,0,0,1,361.5,39.17C393.55,69,400.89,121,377.06,157.94c-13.27,20.6-35,35.42-58.72,41.21-11.95,2.91-23.45,6.37-29.27,15.82a44.65,44.65,0,0,1,9.44,8.35c4.92-12.25,17.74-16.16,31.11-19.42,23.72-5.79,45.45-20.62,58.72-41.22C412.17,125.71,404.83,73.72,372.78,43.92Z"/><path class="cls-1" d="M144.66,185.7a101,101,0,0,0,35.88,22.09c18,6.31,36.49,5,55.25,4.23,22.35-.93,48.7.43,61.22,22.22,2,3.41,6.74,1.67,7-1.89,1.3-17.48,18.09-18.37,31.17-22a104.45,104.45,0,0,0,30.61-14c17.5-11.78,31.37-28.53,38.67-48.41,14.79-40.26,1.36-88.13-32.06-114.84C333.79,2.23,274.88-4.11,227.38,2.2c-45.14,6-89.67,29.72-109.79,72.3C99.82,112.1,108.24,163.2,144.66,185.7ZM240.27,9c44.19-3.2,98.69,3.52,132.51,35,32.05,29.8,39.39,81.79,15.56,118.76-13.27,20.6-35,35.43-58.72,41.22-13.37,3.26-26.19,7.17-31.11,19.42-17.81-21.09-49-19.29-74.88-18.18-36.48,1.56-69.14-11.91-89.31-43.45a90.26,90.26,0,0,1-4.64-89.81A102.8,102.8,0,0,1,154,41C177.92,21.53,209.26,11.2,240.27,9Z"/><path class="cls-4" d="M177.43,501.42c-47.84-40.91-123.71-43.79-164.57-37.73,49.56,8.57,97.57,33.21,112.39,93.54,8.62,35.12,8.58,97-39.52,193.11-.76,1.53-1.5,3-2.29,4.58s-1.54,3-2.34,4.52c-.23.45-.48.91-.72,1.37L78.7,764l-.93,1.72c-.51.95-1,1.9-1.54,2.85l-1,1.89-1.52,2.74-1.08,1.94-1.54,2.72-1.11,2-1.59,2.74c-.37.64-.74,1.29-1.12,1.93-.57,1-1.16,2-1.74,3-.34.56-.66,1.13-1,1.69q-1.33,2.24-2.68,4.45c-.41.68-.83,1.36-1.25,2L59,798.14l-1.44,2.32-1.38,2.2-1.54,2.42-1.31,2-1.62,2.51-1.23,1.87-1.71,2.6-1.13,1.69-1.82,2.71-.9,1.31c-3.28,4.82-6.59,9.5-9.89,14l-.62.85-2.16,2.89-.75,1c-.72,1-1.43,1.87-2.14,2.79l-.73.95c-.72.93-1.44,1.85-2.16,2.75l-.66.83c-.75.94-1.5,1.87-2.25,2.78l-.39.48c-4.37,5.33-8.67,10.2-12.83,14.48L10,864c-.73.74-1.45,1.46-2.17,2.17l-.52.51c-.7.69-1.4,1.35-2.09,2l-.53.48c-.69.65-1.39,1.27-2.07,1.88l-.42.36c-.72.63-1.44,1.24-2.15,1.83H0c1.48-.49,2.9-1,4.15-1.52,150-63.08,224.88-169.65,224.88-256C229,582.61,220.32,538.1,177.43,501.42Z"/><path class="cls-5" d="M261.78,624.64c13.32-61.35,75.39-84.81,108.73-97.42,4.94-1.87,9.21-3.48,12.41-4.87,8.59-3.72,11.5-7,11.84-7.86a4.2,4.2,0,0,0,.56-2.61,7.23,7.23,0,0,0-3.12-5.49c-.77-.51-2.79-1.68-3.23-1.86-8.75-3.48-23.31-6.51-47.38-7.27-3.78-.12-107.37,0-154,66.77-29.43,42.1-21.91,84.28-21.83,85,12.47,124.85,163,198.32,222.48,222.65,2,.81,4.33,1.61,6.73,2.36C291.62,769.54,248.05,687.94,261.78,624.64Z"/><path class="cls-4" d="M659.77,501.42c-47.84-40.91-123.7-43.79-164.56-37.73,49.56,8.57,97.57,33.21,112.38,93.54,8.63,35.12,8.59,97-39.51,193.11-.77,1.53-1.51,3-2.29,4.58s-1.55,3-2.34,4.52l-.72,1.37L561.05,764l-.93,1.72c-.51.95-1,1.9-1.55,2.85l-1,1.89L556,773.19l-1.08,1.94-1.54,2.72c-.37.65-.74,1.31-1.12,2l-1.58,2.74c-.37.64-.74,1.29-1.12,1.93l-1.74,3c-.34.56-.67,1.13-1,1.69q-1.33,2.24-2.68,4.45c-.42.68-.84,1.36-1.25,2l-1.55,2.52c-.48.78-1,1.55-1.45,2.32s-.91,1.47-1.38,2.2L537,805.08l-1.32,2c-.53.84-1.07,1.67-1.61,2.51l-1.23,1.87-1.71,2.6L530,815.8l-1.82,2.71-.9,1.31c-3.28,4.82-6.59,9.5-9.89,14l-.63.85-2.16,2.89-.75,1c-.71,1-1.42,1.87-2.13,2.79-.25.32-.49.64-.74.95L508.83,845l-.66.83c-.75.94-1.5,1.87-2.25,2.78l-.39.48c-4.37,5.33-8.68,10.2-12.84,14.48l-.38.4c-.73.74-1.45,1.46-2.17,2.17l-.53.51c-.7.69-1.39,1.35-2.09,2l-.52.48c-.7.65-1.39,1.27-2.08,1.88l-.42.36c-.72.63-1.44,1.24-2.14,1.83h0c1.47-.49,2.9-1,4.14-1.52,150-63.08,224.89-169.65,224.89-256C711.38,582.61,702.67,538.1,659.77,501.42Z"/><path class="cls-5" d="M744.13,624.64c13.32-61.35,75.38-84.81,108.73-97.42,4.94-1.87,9.21-3.48,12.4-4.87,8.59-3.72,11.5-7,11.85-7.86a4.2,4.2,0,0,0,.56-2.61,7.24,7.24,0,0,0-3.13-5.49,35,35,0,0,0-3.23-1.86c-8.74-3.48-23.31-6.51-47.37-7.27-3.79-.12-107.37,0-154,66.77-29.43,42.1-21.91,84.28-21.83,85,12.47,124.85,163,198.32,222.47,222.65,2,.81,4.34,1.61,6.74,2.36C774,769.54,730.39,687.94,744.13,624.64Z"/></g></g></svg>