<svg xmlns="http://www.w3.org/2000/svg" xmlns:xlink="http://www.w3.org/1999/xlink" width="152" height="152" viewBox="0 0 152 152">
  <defs>
    <clipPath id="clip-path">
      <rect id="Rectangle_92" data-name="Rectangle 92" width="152" height="152" transform="translate(787.436 1761.061)" fill="#fff" stroke="#707070" stroke-width="1"/>
    </clipPath>
  </defs>
  <g id="Mask_Group_1" data-name="Mask Group 1" transform="translate(-787.436 -1761.061)" clip-path="url(#clip-path)">
    <g id="Fundraising" transform="translate(791.68 1761.106)">
      <path id="Path_523" data-name="Path 523" d="M112.718,80.116c18.12,0,32.945-15.294,32.945-34.535,0-18.994-14.825-34.535-32.945-34.535S79.773,26.586,79.773,45.581C79.773,64.822,94.833,80.116,112.718,80.116Zm0-32.069c-5.883,0-10.825-5.18-10.825-11.347a11.253,11.253,0,0,1,8.472-11.1V21.653a2.419,2.419,0,0,1,2.353-2.467,2.594,2.594,0,0,1,2.353,2.467V25.6a11.514,11.514,0,0,1,8.472,11.1,2.419,2.419,0,0,1-2.353,2.467,2.594,2.594,0,0,1-2.353-2.467,6.355,6.355,0,0,0-5.883-6.414h-.235c-3.294,0-5.883,2.96-5.883,6.414a6.386,6.386,0,0,0,6.118,6.414c5.883,0,10.825,5.18,10.825,11.347a11.212,11.212,0,0,1-8.942,11.1v3.947a2.356,2.356,0,1,1-4.706,0V65.315a11.032,11.032,0,0,1-8-10.854,2.419,2.419,0,0,1,2.353-2.467,2.594,2.594,0,0,1,2.353,2.467,6.125,6.125,0,1,0,12.237,0A6.588,6.588,0,0,0,112.718,48.048Z" transform="translate(-41.18 -11.045)" fill="#e3ab7d"/>
      <path id="Path_524" data-name="Path 524" d="M150.17,105.829l-21.414-7.647c-.235.247-.941,1.973-2.353,4.194.471.247.235,0,15.766,5.674L95.341,124.823,48.512,108.049c16-5.92,15.531-5.427,15.766-5.674-1.177-1.727-2.353-3.947-2.589-4.194l-21.414,7.647a2.175,2.175,0,0,0-1.412,1.48l56.477,20.475,56.242-20.228A2.576,2.576,0,0,0,150.17,105.829Z" transform="translate(-23.803 -45.639)" fill="#e3ab7d"/>
      <path id="Path_525" data-name="Path 525" d="M79.748,140.091,23.742,119.864l-11.06,14.554,52.947,20.475Z" transform="translate(-12.682 -54.246)" fill="#e3ab7d"/>
      <path id="Path_526" data-name="Path 526" d="M74.777,176.314l-40-15.541v41.2L91.25,222.443V161.266L77.366,175.82A3.145,3.145,0,0,1,74.777,176.314Zm35.063-.493L95.956,161.266v61.177l56.712-20.475v-41.2l-40.24,15.541A3.145,3.145,0,0,1,109.84,175.82Z" transform="translate(-22.065 -70.487)" fill="#e3ab7d"/>
      <path id="Path_527" data-name="Path 527" d="M200.651,119.864l-56.242,20.228,14.355,14.8,41.887-16.281,11.06-4.194Z" transform="translate(-68.636 -54.246)" fill="#e3ab7d"/>
    </g>
  </g>
</svg>
