<svg xmlns="http://www.w3.org/2000/svg" xmlns:xlink="http://www.w3.org/1999/xlink" width="167" height="167" viewBox="0 0 167 167">
  <defs>
    <clipPath id="clip-path">
      <rect id="Rectangle_96" data-name="Rectangle 96" width="167" height="167" transform="translate(531 1762)" fill="#fff"/>
    </clipPath>
  </defs>
  <g id="Mask_Group_4" data-name="Mask Group 4" transform="translate(-531 -1762)" clip-path="url(#clip-path)">
    <g id="star" transform="translate(530.579 1762)">
      <path id="Path_534" data-name="Path 534" d="M137.572,11.806H109.748V5.091c0-2.811-1.91-5.091-4.271-5.091s-4.271,2.281-4.271,5.091v6.714H40.638V5.091C40.638,2.281,38.725,0,36.367,0S32.1,2.281,32.1,5.091v6.714H4.271a3.669,3.669,0,0,0-1.663.4A5.179,5.179,0,0,0,0,16.9V161.909C0,164.718,1.911,167,4.271,167h133.3c2.36,0,4.271-2.282,4.271-5.091V16.9C141.843,14.066,139.92,11.806,137.572,11.806ZM133.3,156.817H8.543V59.162H133.3Zm0-107.838H8.543V21.989H32.1V28.7c0,2.813,1.91,5.091,4.271,5.091s4.271-2.278,4.271-5.091v-6.71h60.567V28.7c0,2.813,1.913,5.091,4.271,5.091s4.271-2.278,4.271-5.091v-6.71H133.3Zm0,0" fill="#e3ab7d"/>
      <path id="Path_535" data-name="Path 535" d="M77.973,148.624l-1.264,21.809c-.213,3.684,2.829,6.393,5.72,5.135l17.151-7.44,17.151,7.44c2.885,1.256,5.934-1.447,5.72-5.135l-1.264-21.809,11.779-16.768c1.959-2.781.9-7.053-2.01-8.132l-18.026-6.66-9.807-17.4a3.916,3.916,0,0,0-7.09,0l-9.807,17.4L68.2,123.724c-2.911,1.077-3.971,5.347-2.01,8.132ZM90.2,126.256a4.411,4.411,0,0,0,2.28-2.024l7.1-12.6,7.1,12.6a4.411,4.411,0,0,0,2.28,2.024l13.336,4.928-8.765,12.475a5.755,5.755,0,0,0-.986,3.621l.929,16.042-12.435-5.4a3.643,3.643,0,0,0-2.922,0l-12.435,5.4.929-16.042a5.755,5.755,0,0,0-.986-3.621l-8.765-12.475Zm0,0" transform="translate(-28.659 -32.342)" fill="#e3ab7d"/>
    </g>
  </g>
</svg>
