<svg xmlns="http://www.w3.org/2000/svg" xmlns:xlink="http://www.w3.org/1999/xlink" width="185" height="143" viewBox="0 0 185 143">
  <defs>
    <clipPath id="clip-path">
      <rect id="Rectangle_95" data-name="Rectangle 95" width="185" height="143" transform="translate(1099 1508)" fill="#fff" stroke="#707070" stroke-width="1"/>
    </clipPath>
  </defs>
  <g id="Mask_Group_3" data-name="Mask Group 3" transform="translate(-1099 -1508)" clip-path="url(#clip-path)">
    <g id="mental-health" transform="translate(1128.658 1508)">
      <path id="Path_532" data-name="Path 532" d="M69.126,29.325A22.03,22.03,0,0,0,54.463,34.9,22.028,22.028,0,0,0,39.8,29.325,18.431,18.431,0,0,0,20.947,47.988c0,9.314,6.58,14.713,13.546,20.43,5.454,4.475,11.634,9.547,16.368,17.512a4.191,4.191,0,0,0,7.2,0C62.8,77.965,68.98,72.893,74.433,68.418,81.4,62.7,87.979,57.3,87.979,47.988A18.43,18.43,0,0,0,69.126,29.325Zm-.009,32.616c-4.506,3.7-9.886,8.113-14.654,14.375C49.7,70.054,44.316,65.639,39.809,61.941,32.921,56.288,29.326,53.1,29.326,47.988c0-5.959,4.405-10.284,10.474-10.284a14.055,14.055,0,0,1,11.164,5.657,4.127,4.127,0,0,0,3.482,1.915,4.2,4.2,0,0,0,3.524-1.929A14.219,14.219,0,0,1,69.126,37.7C75.2,37.7,79.6,42.029,79.6,47.988,79.6,53.1,76.006,56.288,69.117,61.941Zm0,0" fill="#e3ab7d"/>
      <path id="Path_533" data-name="Path 533" d="M62.219.538A54.474,54.474,0,0,0,16.758,93.763v45.048A4.189,4.189,0,0,0,20.947,143H62.842a4.189,4.189,0,0,0,4.189-4.189V125.684s11.225,0,11.253,0c12.98-.248,22.138-3.168,25.312-15.867l4.412-17.648H121.5a4.19,4.19,0,0,0,3.677-6.2L108.9,56.173A54.606,54.606,0,0,0,62.219.538Zm52.214,83.251h-9.7a4.19,4.19,0,0,0-4.065,3.173l-5.205,20.823c-1.789,7.155-5.671,9.293-17.3,9.52H62.842a12.583,12.583,0,0,1-12.568-12.568,4.189,4.189,0,1,0-8.379,0,20.984,20.984,0,0,0,16.758,20.526v9.359H25.137V91.935a4.188,4.188,0,0,0-1.4-3.121A46.091,46.091,0,1,1,100.483,56.94a4.187,4.187,0,0,0,.506,2.229Zm0,0" fill="#e3ab7d"/>
    </g>
  </g>
</svg>
