<svg xmlns="http://www.w3.org/2000/svg" width="349.032" height="348.908" viewBox="0 0 349.032 348.908">
  <g id="Group_91" data-name="Group 91" transform="translate(28.364 -13)">
    <path id="Path_539" data-name="Path 539" d="M150.709,0A95.08,95.08,0,1,0,245.85,95.019,95.176,95.176,0,0,0,150.709,0Zm0,15.857A79.223,79.223,0,1,1,71.424,95.019,79.08,79.08,0,0,1,150.709,15.857Zm-.868,31.468a7.924,7.924,0,0,0-7.06,8.051v.991a27.153,27.153,0,0,0-12.761,6.442,22.533,22.533,0,0,0-7.06,17.221c.484,12.368,12.02,23.54,28,22.917,9.177-.361,11.5,4.075,11.647,7.679a6.367,6.367,0,0,1-2.109,5.082c-1.586,1.487-4.5,2.993-9.784,3.1h-.127c-4.25,0-7.207-.143-8.793-.618-1.609-.488-2.426-.916-4.214-3.718a7.939,7.939,0,0,0-13.383,8.543l0,0A24.155,24.155,0,0,0,137.2,133.3a29.8,29.8,0,0,0,5.578,1.114v.25a7.929,7.929,0,1,0,15.857.222v-1.09a27.534,27.534,0,0,0,12.757-6.565,22.5,22.5,0,0,0,7.064-17.221c-.5-12.345-12.17-23.421-28.122-22.794-9.153.357-11.377-4.115-11.52-7.806a6.288,6.288,0,0,1,2.105-5.078c1.6-1.506,4.511-2.993,9.788-3.1h.123c4.25,0,7.207.139,8.8.618,1.609.488,2.426.789,4.21,3.592A7.939,7.939,0,1,0,177.222,66.9l0,0a24.174,24.174,0,0,0-13.007-10.283,27.994,27.994,0,0,0-5.574-.991v-.246a7.933,7.933,0,0,0-7.758-8.1A7.592,7.592,0,0,0,149.841,47.325ZM282.393,202.053a23.235,23.235,0,0,0-19.076,10.156,29.784,29.784,0,0,0-2.973,5.578,79.439,79.439,0,0,0-13.629-2.6,204.081,204.081,0,0,0-20.685-1.237c-12.4,0-26.057,1.181-38.651,5.078-11.08,3.425-21.415,9.336-28.618,18.707H126.923c-19.211,0-32.808,12.416-34.814,27.5-15.675-7.354-30.644-15.8-58.223-23.29a8,8,0,0,0-1.364-.246c-9.887-.88-22.12,1.681-28.368,12.265A27.42,27.42,0,0,0,.437,273.037a22.046,22.046,0,0,0,12.142,15.484c20.7,9.784,47.932,23.892,72.1,35.928,12.087,6.018,23.361,11.492,32.832,15.734s16.519,7.227,22.545,8.3c.246.056.5.1.745.127,22.247,2,53.232-6.323,79.78-14.743,13.272-4.21,25.2-8.527,33.942-11.893,3.6-1.387,6.275-2.478,8.674-3.469.032.048.091.075.123.123a23.347,23.347,0,0,0,19.076,10.283h29.236a7.929,7.929,0,1,0,.226-15.857,2.163,2.163,0,0,0-.226,0H282.393c-3.124,0-4.357-.872-5.946-3.223s-2.846-6.6-2.846-11.766V232.9c0-5.173,1.261-9.419,2.846-11.77s2.823-3.219,5.946-3.219h58.6a7.929,7.929,0,1,0,.222-15.857,2.072,2.072,0,0,0-.222,0ZM226.029,229.8s9.526.04,18.83,1.114a64.379,64.379,0,0,1,12.016,2.355c.6.21.507.317.868.5v69.87c-2.256.947-5.11,2.125-8.92,3.592-8.464,3.259-20.17,7.429-33.078,11.52-25.653,8.135-56.558,15.373-73.215,14-2.43-.484-9.665-3.068-18.58-7.064-9.094-4.071-20.21-9.51-32.209-15.484-24-11.952-51.313-26.053-72.474-36.051a5.075,5.075,0,0,1-3.219-4.21,11.738,11.738,0,0,1,1.732-7.928c1.629-2.759,7.413-4.824,12.884-4.46C61.228,266,74.508,275.982,96.2,284.684a7.978,7.978,0,0,0,3.342.618c1.11.959,1.82,2.382,3.1,3.1,6.6,3.687,14.652,4.832,24.281,4.832h59.464a7.929,7.929,0,0,0,.222-15.857,2.072,2.072,0,0,0-.222,0H126.923c-8.139,0-13.867-1.324-16.6-2.85s-3.116-2.2-3.219-5.328c-.27-8.162,5.292-15.607,19.821-15.607H162.6a7.919,7.919,0,0,0,6.811-3.841c4.464-7.433,12.4-12.432,22.671-15.607S214.64,229.8,226.029,229.8Z" transform="translate(-28.364 13)" fill="#fff"/>
  </g>
</svg>
