<svg xmlns="http://www.w3.org/2000/svg" xmlns:xlink="http://www.w3.org/1999/xlink" width="189" height="155" viewBox="0 0 189 155">
  <defs>
    <clipPath id="clip-path">
      <rect id="Rectangle_97" data-name="Rectangle 97" width="189" height="155" transform="translate(771 1733)" fill="#e3ab7d" stroke="#707070" stroke-width="1"/>
    </clipPath>
  </defs>
  <g id="Mask_Group_5" data-name="Mask Group 5" transform="translate(-771 -1733)" clip-path="url(#clip-path)">
    <path id="manager-avatar-svgrepo-com" d="M114.024,45.768a9.335,9.335,0,0,0-2.869-2.84,47.76,47.76,0,0,0-.5-6.655c.264-3.2,1.188-20.831-9.6-28.779A36.194,36.194,0,0,0,79.629,0,27.937,27.937,0,0,0,63.583,4.788a23.457,23.457,0,0,0-7.241,7.936c-3.39.12-10.412,1.5-13.518,10.456-2.939,8.47-.566,13.7,1.179,16.127-.114,1.4-.155,2.636-.158,3.621a9.335,9.335,0,0,0-2.869,2.84c-1.943,3-2.273,7.02-.983,11.955,2.413,9.227,8.044,11.258,11.049,11.666,1.851,3.7,5.918,11.262,9.989,15.062a19.9,19.9,0,0,0,6.283,3.808,27.706,27.706,0,0,0,20.374,0A19.9,19.9,0,0,0,93.97,84.45c4.07-3.8,8.138-11.361,9.989-15.062,3-.408,8.635-2.439,11.049-11.666C116.3,52.789,115.967,48.767,114.024,45.768Zm-5.878,10.16c-1.471,5.625-4.1,6.464-5.536,6.464-.1,0-.179-.006-.224-.009a3.33,3.33,0,0,0-3.876,1.991c-1.4,3.018-5.828,11.577-9.379,14.892a12.921,12.921,0,0,1-4.06,2.4,20.7,20.7,0,0,1-15.142,0,12.921,12.921,0,0,1-4.06-2.4c-3.551-3.315-7.975-11.874-9.379-14.892a3.4,3.4,0,0,0-3.059-2.094,3.326,3.326,0,0,0-.818.1c-.045,0-.122.009-.223.009-1.436,0-4.065-.84-5.536-6.464-.724-2.768-.718-4.975.017-6.215A2.277,2.277,0,0,1,48.1,48.69a3.33,3.33,0,0,0,2.89-3.792,33.147,33.147,0,0,1,.03-4.2,28.807,28.807,0,0,0,9.626-6.667,21.358,21.358,0,0,0,3.768-6.054,44.7,44.7,0,0,0,10.191,6.19c7.624,3.374,22.86,4.979,29.291,5.527a35.116,35.116,0,0,1,.106,5.2,3.324,3.324,0,0,0,2.89,3.8,2.281,2.281,0,0,1,1.233,1.025C108.864,50.954,108.871,53.162,108.147,55.929Zm22.737,47.354-31-12.4a3.544,3.544,0,0,0-4.65,2.086l-7.792,21.544L85.9,110.078l2.455-6a3.546,3.546,0,0,0-3.282-4.889H69.929a3.546,3.546,0,0,0-3.282,4.889l2.455,6-1.543,4.436L59.766,92.97a3.544,3.544,0,0,0-4.65-2.086l-31,12.4a24.809,24.809,0,0,0-15.67,23.146v25.025A3.546,3.546,0,0,0,11.992,155H143.008a3.546,3.546,0,0,0,3.546-3.546V126.429A24.81,24.81,0,0,0,130.884,103.283Zm-1.077,33.377a3.546,3.546,0,0,1-3.546,3.546H102.456a3.546,3.546,0,0,1-3.546-3.546V125.6a3.546,3.546,0,0,1,3.546-3.546h23.805a3.546,3.546,0,0,1,3.546,3.546v11.055Z" transform="translate(788 1733)" fill="#e3ab7d"/>
  </g>
</svg>
