<svg xmlns="http://www.w3.org/2000/svg" width="252" height="339.515" viewBox="0 0 252 339.515">
  <g id="Group_94" data-name="Group 94" transform="translate(-61 -671)">
    <g id="Group_93" data-name="Group 93" transform="translate(61 671)">
      <g id="Group_92" data-name="Group 92">
        <path id="Path_540" data-name="Path 540" d="M155.767,339.515c-44.885,0-78.532-18.354-100.144-54.679-2.112-3.35-4.313-6.788-6.518-10.222-2.16-3.364-4.325-6.736-6.485-10.167L5.066,210.809a27.845,27.845,0,0,1,3.446-36.033,27.3,27.3,0,0,1,19.817-7.645,27.992,27.992,0,0,1,19.362,8.583l3.59,3.8a6.608,6.608,0,0,1,1.821,1.8c.133.185.3.373.462.565.318.38.632.768.916,1.149l10.939,11.423V170.068L65.163,51.7c-.174-8.542,2.574-16.157,7.744-21.305a22.294,22.294,0,0,1,16.652-6.507h0c10.119,0,18.037,6.127,21.449,15.8,0-3.811.026-7.659.114-11.515.181-8.911,3.309-16.718,8.8-21.959a21.927,21.927,0,0,1,15.862-6.2h.007c13.694,0,23.768,12.021,23.768,28.584v.074a25.434,25.434,0,0,1,6.374-10.691,22.2,22.2,0,0,1,16.312-6.153c13.86.355,23.536,12.53,23.536,29.607-.063,5.99-.107,13.184-.144,20.906A23.819,23.819,0,0,1,211.44,53c4.358-4.254,10.182-6.4,17.021-6.26h0c14.07.351,22.867,10.451,23.532,27.018L252,248.9c-.277,53.516-30.914,86.376-84.057,90.187Q161.728,339.515,155.767,339.515ZM27.483,181.151a13.138,13.138,0,0,0-9.218,3.715,13.754,13.754,0,0,0-1.75,17.826l37.791,53.992c2.33,3.682,4.472,7.017,6.611,10.355,2.227,3.468,4.45,6.935,6.677,10.47,20.976,35.25,53.482,50.764,99.361,47.577,46.214-3.316,70.773-29.677,71.013-76.228V74.039c-.528-13.033-7.294-13.206-9.846-13.269-2.958-.063-5.266.7-6.88,2.271-2.216,2.168-3.39,5.968-3.39,11,0,8.416.07,20.644.14,32.148.059,10.263.118,19.95.118,25.881a12.788,12.788,0,0,1-12.926,12.922h-.768a12.788,12.788,0,0,1-12.926-12.922c0-16.013,0-64.739.258-90.708,0-7-2.578-15.322-9.853-15.511a8.257,8.257,0,0,0-6.156,2.171c-2.482,2.423-3.848,6.91-3.848,12.641q0,9.694.03,19.44c.052,19.307.1,39.279-.288,59.007a12.922,12.922,0,0,1-25.844-.137c-.129-14.979-.129-30.083-.129-45.191,0-15.064,0-30.128-.133-45.129,0-8.612-4.258-14.658-10.171-14.613a7.965,7.965,0,0,0-5.739,2.327c-2.729,2.6-4.358,7.02-4.461,12.113-.166,7.264-.111,14.584-.055,21.667.03,3.667.059,7.345.059,11.057V117.69a12.785,12.785,0,0,1-12.922,12.922h-.517A12.785,12.785,0,0,1,98.8,117.69V50.928c0-6.382-2.644-13.1-9.724-13.01a8.454,8.454,0,0,0-6.267,2.426c-2.426,2.415-3.711,6.4-3.612,11.216V64.023l.259,147.9a7.019,7.019,0,0,1-12.087,4.853L44.006,192.381a7.045,7.045,0,0,1-.764-.949c-.129-.185-.3-.373-.458-.565l-.159-.192a6.153,6.153,0,0,1-.709-.643l-4.365-4.62a13.99,13.99,0,0,0-9.646-4.254C27.764,181.155,27.623,181.151,27.483,181.151ZM157.6,118.942l0,.03Zm2.223-.041v0ZM158.2,288.263a14.765,14.765,0,0,1-5.938-1.27,7.472,7.472,0,0,1-.868-.414c-12.77-7.257-21.859-13.55-29.47-20.4a93.515,93.515,0,0,1-17.774-19.207,47.513,47.513,0,0,1-8.169-25.061,42.437,42.437,0,0,1,9.185-27.653A35.1,35.1,0,0,1,130.09,180.8c9.72-.643,17.667,1.13,24.429,5.432,1.281.816,2.533,1.7,3.723,2.629a37.137,37.137,0,0,1,23.133-8.346h1.215a36.742,36.742,0,0,1,27.757,12.024c4.546,4.819,7.622,11.149,9.639,19.857l.074.373c2.12,12.139-.34,23.144-7.523,33.643a96.4,96.4,0,0,1-20.131,21.538,171.222,171.222,0,0,1-27.48,18.672,7.007,7.007,0,0,1-.79.373A14.779,14.779,0,0,1,158.2,288.263Zm3.335-7.785h0Zm-3.615-6.334c.107.041.21.074.314.1.07-.026.155-.059.247-.1a157.289,157.289,0,0,0,24.994-17.021,83.191,83.191,0,0,0,17.416-18.546l.048-.074c5.059-7.379,6.755-14.739,5.329-23.14-1.444-6.164-3.357-10.263-6.189-13.269a22.8,22.8,0,0,0-17.486-7.552h-1.03c-7.353.2-13.191,2.962-17.667,8.457a7.012,7.012,0,0,1-5.288,2.581,6.829,6.829,0,0,1-5.392-2.349,31.156,31.156,0,0,0-6.23-5.167c-4.151-2.641-9.329-3.719-15.788-3.279a20.689,20.689,0,0,0-14.994,8.136,28.12,28.12,0,0,0-6.193,18.535,33.182,33.182,0,0,0,5.794,17.69,80.205,80.205,0,0,0,15.256,16.382C138.059,261.821,146.28,267.508,157.917,274.145Z" transform="translate(0 0)" fill="#fff"/>
      </g>
    </g>
  </g>
</svg>
